<svg width="50" height="50" viewBox="0 0 50 50" fill="none" xmlns="http://www.w3.org/2000/svg">
<g id="favicon 1 1" clip-path="url(#clip0_372_9622)">
<g id="Group">
<path id="Vector" fill-rule="evenodd" clip-rule="evenodd" d="M36.9313 3.81041C37.4802 4.11066 37.9762 4.4824 38.4198 4.92566C38.392 5.12119 38.4229 5.30707 38.5128 5.48328C38.8769 5.74144 39.2179 6.02025 39.5361 6.31971C39.6948 6.71627 39.7567 7.08802 39.7221 7.43495C40.1882 7.67558 40.6844 7.70655 41.2105 7.52789C41.3758 8.03774 41.5929 8.53339 41.8617 9.01487C42.333 9.02272 42.736 9.27054 43.0711 9.75837C43.2912 10.2234 43.4151 10.657 43.4432 11.0595C43.3232 11.4186 43.075 11.6355 42.699 11.71C42.8552 12.0198 42.7622 12.0508 42.4199 11.803C41.9808 12.232 41.4535 12.5108 40.8384 12.6394C40.6243 13.0484 40.3141 13.3272 39.9082 13.4758C39.7831 13.3332 39.6282 13.2093 39.443 13.1041C39.0177 13.2441 38.5526 13.2441 38.0477 13.1041C37.7189 12.6789 37.2848 12.431 36.7453 12.3606C35.1317 10.8101 33.2711 9.63292 31.1637 8.829C27.0066 7.20318 22.7895 7.11025 18.5122 8.55019C18.0978 8.7251 17.7257 8.94196 17.3959 9.20075C14.8817 10.2078 12.7731 11.7568 11.0701 13.8476C10.8841 13.8476 10.698 13.8476 10.512 13.8476C10.4188 14.3453 10.1397 14.7171 9.67475 14.9628C9.67475 14.3433 9.67475 13.7237 9.67475 13.1041C9.33318 12.5899 8.89906 12.404 8.37239 12.5465C7.11642 11.9248 6.03111 12.1417 5.11648 13.197C5.35016 13.2745 5.47418 13.4294 5.48858 13.6617C5.48858 13.7237 5.48858 13.7856 5.48858 13.8476C5.34177 13.9002 5.21773 13.9931 5.11648 14.1264C5.34272 14.7605 5.46676 15.3801 5.48858 15.9851C4.92243 15.8284 4.33326 15.6735 3.72109 15.5204C3.64693 16.1478 3.67793 16.7673 3.81412 17.3792C3.81412 17.627 3.93816 17.7509 4.18622 17.7509C4.23266 18.0153 4.38771 18.2011 4.65135 18.3086C4.74251 18.5489 4.77353 18.7968 4.74437 19.052C4.2444 19.0825 3.74825 19.0515 3.25596 18.9591C3.44519 18.7641 3.47621 18.5472 3.34899 18.3086C3.15372 18.4976 2.93668 18.5286 2.6978 18.4015C2.99671 18.2065 3.12076 17.9277 3.06991 17.5651C2.75982 17.5651 2.44974 17.5651 2.13965 17.5651C2.54061 16.5591 2.91271 15.5368 3.25596 14.4981C3.02228 14.4207 2.89826 14.2658 2.88386 14.0335C6.85095 6.40956 13.1147 1.97956 21.6751 0.7435C27.0966 0.184882 32.1822 1.20719 36.9313 3.81041Z" fill="#809AAC"/>
</g>
<g id="Group_2">
<path id="Vector_2" fill-rule="evenodd" clip-rule="evenodd" d="M22.7911 -0.0928955C24.2176 -0.0928955 25.6439 -0.0928955 27.0703 -0.0928955C29.0711 0.189599 31.0557 0.654283 33.024 1.30116C34.5656 1.82335 35.9919 2.53586 37.3032 3.4387C37.1791 3.56263 37.0552 3.68653 36.9311 3.81045C32.1819 1.20722 27.0964 0.184918 21.6748 0.743536C13.1144 1.9796 6.85066 6.4096 2.88357 14.0335C0.606794 18.3938 -0.23044 23.0406 0.371868 27.974C0.927183 31.7147 2.19854 35.1844 4.18593 38.3829C4.17477 38.4839 4.11276 38.5458 3.99988 38.5688C3.84097 37.9352 3.46887 37.5013 2.88357 37.2677C1.41276 34.8415 0.420485 32.2393 -0.0932617 29.461C-0.0932617 26.4251 -0.0932617 23.3891 -0.0932617 20.3532C0.532589 17.1205 1.77294 14.1465 3.62778 11.4313C3.88942 11.3433 4.01346 11.1575 3.99988 10.8736C4.32778 10.732 4.51383 10.4841 4.55803 10.1302C4.60224 9.77618 4.78829 9.52835 5.11619 9.38666C5.37784 9.29872 5.50188 9.11285 5.48829 8.82904C6.1917 7.79374 7.05995 6.92632 8.09302 6.22681C8.51141 6.11904 8.82149 5.87121 9.02328 5.48331C9.2241 5.10357 9.53418 4.85575 9.95354 4.73982C10.2376 4.75339 10.4237 4.62947 10.5117 4.36807C10.5997 4.10668 10.7858 3.98276 11.0698 3.99632C11.3539 4.00989 11.54 3.88597 11.628 3.62458C11.6916 3.46878 11.8156 3.40681 12.0001 3.4387C12.2842 3.45227 12.4702 3.32835 12.5583 3.06696C15.7513 1.29389 19.1622 0.240601 22.7911 -0.0928955Z" fill="#27292C"/>
</g>
<g id="Group_3">
<path id="Vector_3" opacity="0.898" fill-rule="evenodd" clip-rule="evenodd" d="M12.5586 3.06692C12.4706 3.32832 12.2846 3.45224 12.0005 3.43867C12.0885 3.17728 12.2746 3.05335 12.5586 3.06692Z" fill="#90908F"/>
</g>
<g id="Group_4">
<path id="Vector_4" opacity="0.882" fill-rule="evenodd" clip-rule="evenodd" d="M11.6285 3.62454C11.5404 3.88593 11.3544 4.00986 11.0703 3.99629C11.1583 3.73489 11.3444 3.61097 11.6285 3.62454Z" fill="#929292"/>
</g>
<g id="Group_5">
<path id="Vector_5" fill-rule="evenodd" clip-rule="evenodd" d="M37.3033 3.43872C38.993 4.28309 40.4814 5.39833 41.7685 6.78445C41.5205 6.78445 41.3964 6.90837 41.3964 7.15619C40.4533 6.33666 39.4611 5.59316 38.4196 4.92571C37.976 4.48246 37.48 4.11071 36.9312 3.81047C37.0552 3.68655 37.1792 3.56264 37.3033 3.43872Z" fill="#2D2F33"/>
</g>
<g id="Group_6">
<path id="Vector_6" opacity="0.859" fill-rule="evenodd" clip-rule="evenodd" d="M10.5118 4.36807C10.4237 4.62946 10.2377 4.75339 9.95361 4.73982C10.0416 4.47842 10.2277 4.3545 10.5118 4.36807Z" fill="#949494"/>
</g>
<g id="Group_7">
<path id="Vector_7" opacity="0.941" fill-rule="evenodd" clip-rule="evenodd" d="M9.02352 5.48328C8.82173 5.87118 8.51166 6.119 8.09326 6.22677C8.29505 5.83887 8.60513 5.59105 9.02352 5.48328Z" fill="#7D7D7F"/>
</g>
<g id="Group_8">
<path id="Vector_8" opacity="0.01" fill-rule="evenodd" clip-rule="evenodd" d="M41.9546 6.97024C42.2387 6.95667 42.4247 7.0806 42.5127 7.34199C42.2286 7.35556 42.0426 7.23164 41.9546 6.97024Z" fill="#C7C9CA"/>
</g>
<g id="Group_9">
<path id="Vector_9" fill-rule="evenodd" clip-rule="evenodd" d="M31.1638 8.82894C31.1759 8.91039 31.145 8.97236 31.0708 9.01481C30.7607 8.89089 30.4507 8.76698 30.1405 8.64306C30.0071 8.74422 29.9141 8.86814 29.8615 9.01481C25.7425 7.89665 21.7113 8.14448 17.7681 9.7583C17.9865 9.41113 17.8624 9.22526 17.396 9.20068C17.7258 8.94189 18.0979 8.72503 18.5123 8.55013C22.7896 7.11018 27.0067 7.20312 31.1638 8.82894Z" fill="#232425"/>
</g>
<g id="Group_10">
<path id="Vector_10" opacity="0.812" fill-rule="evenodd" clip-rule="evenodd" d="M42.5127 7.34204C42.7743 7.42998 42.8984 7.61585 42.8848 7.89966C42.6232 7.81172 42.4991 7.62585 42.5127 7.34204Z" fill="#A2A2A5"/>
</g>
<g id="Group_11">
<path id="Vector_11" opacity="0.847" fill-rule="evenodd" clip-rule="evenodd" d="M43.8155 8.82898C44.077 8.91692 44.2011 9.10279 44.1876 9.3866C43.926 9.29866 43.8019 9.11279 43.8155 8.82898Z" fill="#989A9A"/>
</g>
<g id="Group_12">
<path id="Vector_12" opacity="0.675" fill-rule="evenodd" clip-rule="evenodd" d="M5.48834 8.82898C5.50193 9.11279 5.37788 9.29866 5.11624 9.3866C5.10266 9.10279 5.2267 8.91692 5.48834 8.82898Z" fill="#999999"/>
</g>
<g id="Group_13">
<path id="Vector_13" opacity="0.804" fill-rule="evenodd" clip-rule="evenodd" d="M44.3735 9.57251C44.7014 9.7142 44.8874 9.96203 44.9317 10.316C44.6039 10.1743 44.4178 9.92649 44.3735 9.57251Z" fill="#8D8E91"/>
</g>
<g id="Group_14">
<path id="Vector_14" fill-rule="evenodd" clip-rule="evenodd" d="M31.1637 8.82894C33.2711 9.63286 35.1316 10.8101 36.7452 12.3605C37.3724 12.987 37.9306 13.6686 38.4197 14.4051C38.3991 14.5199 38.3371 14.6128 38.2337 14.684C38.8415 14.8503 38.9656 15.1911 38.6058 15.7063C37.3719 14.1636 36.0076 12.7386 34.5126 11.4312C34.4246 11.1698 34.2386 11.0459 33.9545 11.0594C32.6298 10.2738 31.2655 9.59227 29.8613 9.01481C29.914 8.86814 30.007 8.74422 30.1404 8.64307C30.4506 8.76699 30.7605 8.89089 31.0707 9.01481C31.1449 8.97236 31.1758 8.91039 31.1637 8.82894Z" fill="#232426"/>
</g>
<g id="Group_15">
<path id="Vector_15" opacity="0.827" fill-rule="evenodd" clip-rule="evenodd" d="M4.55816 10.1301C4.51395 10.4841 4.3279 10.7319 4 10.8736C4.04421 10.5196 4.23026 10.2718 4.55816 10.1301Z" fill="#868686"/>
</g>
<g id="Group_16">
<path id="Vector_16" opacity="0.639" fill-rule="evenodd" clip-rule="evenodd" d="M44.9317 10.316C45.1933 10.404 45.3174 10.5899 45.3038 10.8737C45.0422 10.7857 44.9181 10.5999 44.9317 10.316Z" fill="#9F9EA0"/>
</g>
<g id="Group_17">
<path id="Vector_17" opacity="0.541" fill-rule="evenodd" clip-rule="evenodd" d="M4.00006 10.8737C4.01364 11.1575 3.8896 11.3433 3.62796 11.4313C3.61438 11.1475 3.73842 10.9616 4.00006 10.8737Z" fill="#ACACAC"/>
</g>
<g id="Group_18">
<path id="Vector_18" opacity="0.682" fill-rule="evenodd" clip-rule="evenodd" d="M33.9546 11.0595C34.2387 11.0459 34.4247 11.1698 34.5127 11.4312C34.2286 11.4448 34.0426 11.3209 33.9546 11.0595Z" fill="#9C9C9C"/>
</g>
<g id="Group_19">
<path id="Vector_19" opacity="0.671" fill-rule="evenodd" clip-rule="evenodd" d="M45.3037 10.8737C45.5653 10.9616 45.6894 11.1475 45.6758 11.4313C45.4143 11.3433 45.2902 11.1575 45.3037 10.8737Z" fill="#969595"/>
</g>
<g id="Group_20">
<path id="Vector_20" opacity="0.537" fill-rule="evenodd" clip-rule="evenodd" d="M45.6758 11.4313C45.9374 11.5192 46.0615 11.7051 46.0479 11.9889C45.7863 11.901 45.6622 11.7151 45.6758 11.4313Z" fill="#ADADAD"/>
</g>
<g id="Group_21">
<path id="Vector_21" fill-rule="evenodd" clip-rule="evenodd" d="M17.396 9.20068C17.8624 9.22526 17.9865 9.41113 17.7681 9.7583C14.176 11.5503 11.4473 14.2145 9.58182 17.7509C9.45356 17.5141 9.2985 17.5141 9.11669 17.7509C9.03031 17.6404 8.9993 17.5165 9.02367 17.3791C9.56272 16.1158 10.2449 14.9386 11.0702 13.8475C12.7732 11.7567 14.8818 10.2077 17.396 9.20068Z" fill="#29292B"/>
</g>
<g id="Group_22">
<path id="Vector_22" fill-rule="evenodd" clip-rule="evenodd" d="M5.48877 13.8476C5.48877 13.7857 5.48877 13.7237 5.48877 13.6617C6.53105 12.2433 7.67838 12.1813 8.93073 13.4759C9.39707 14.8728 8.90092 15.7402 7.44231 16.0781C6.15366 15.8758 5.50248 15.1323 5.48877 13.8476Z" fill="#0A0F14"/>
</g>
<g id="Group_23">
<path id="Vector_23" fill-rule="evenodd" clip-rule="evenodd" d="M6.419 13.1041C7.27723 13.1846 7.99045 13.5564 8.55859 14.2194C8.81771 14.9074 8.60064 15.2792 7.90741 15.3346C6.91646 15.2441 6.23428 14.7484 5.86084 13.8476C5.91418 13.4864 6.10023 13.2386 6.419 13.1041Z" fill="#7F93A2"/>
</g>
<g id="Group_24">
<path id="Vector_24" fill-rule="evenodd" clip-rule="evenodd" d="M41.7686 6.78442C41.8927 6.78442 41.9546 6.84638 41.9546 6.9703C42.0426 7.23169 42.2287 7.35561 42.5128 7.34204C42.4992 7.62586 42.6233 7.81173 42.8849 7.89967C43.257 8.14749 43.5672 8.45729 43.8152 8.82903C43.8016 9.11284 43.9257 9.29872 44.1873 9.38665C44.3114 9.38665 44.3733 9.44861 44.3733 9.57253C44.4176 9.92651 44.6036 10.1743 44.9315 10.316C44.9179 10.5998 45.042 10.7857 45.3036 10.8736C45.29 11.1575 45.4141 11.3433 45.6757 11.4313C45.6621 11.7151 45.7862 11.9009 46.0478 11.9889C47.7213 14.5241 48.7757 17.3122 49.2107 20.3532C49.0678 20.2114 48.9747 20.0255 48.9316 19.7956C48.8067 19.6558 48.6518 19.5937 48.4665 19.6097C47.312 14.7613 44.9555 10.6101 41.3965 7.15617C41.3965 6.90835 41.5206 6.78442 41.7686 6.78442Z" fill="#202225"/>
</g>
<g id="Group_25">
<path id="Vector_25" fill-rule="evenodd" clip-rule="evenodd" d="M34.5127 17.0074C35.8152 17.2369 35.8772 17.4848 34.6987 17.7509C34.6368 17.5031 34.5747 17.2553 34.5127 17.0074Z" fill="#6D7B89"/>
</g>
<g id="Group_26">
<path id="Vector_26" fill-rule="evenodd" clip-rule="evenodd" d="M34.5128 17.0074C34.5747 17.2553 34.6369 17.5031 34.6988 17.7509C34.3461 17.9332 33.974 18.1191 33.5825 18.3086C33.3972 19.4169 33.3353 20.5322 33.3965 21.6543C33.2121 20.45 33.1501 19.2108 33.2104 17.9368C32.5853 17.9583 31.9652 18.0203 31.3499 18.1227C31.7237 17.8317 32.1579 17.6459 32.6523 17.5651C33.0789 17.4161 33.0169 17.2922 32.4662 17.1933C29.5139 16.0442 26.568 14.867 23.6287 13.6617C20.6875 14.8682 17.7417 16.0454 14.7913 17.1933C14.2406 17.2922 14.1786 17.4161 14.6052 17.5651C15.5771 17.8673 16.5073 18.239 17.396 18.6803C16.945 18.623 16.5109 18.6851 16.0936 18.8662C16.2318 18.9929 16.3559 19.1169 16.4657 19.2379C16.4037 19.2379 16.3417 19.2379 16.2797 19.2379C14.7162 18.7998 13.2278 18.1802 11.8145 17.3792C15.7615 15.7241 19.6997 14.0512 23.6287 12.3606C27.2813 13.8919 30.9093 15.4409 34.5128 17.0074Z" fill="#304D6D"/>
</g>
<g id="Group_27">
<path id="Vector_27" opacity="0.212" fill-rule="evenodd" clip-rule="evenodd" d="M14.7911 17.1934C14.7291 17.3173 14.667 17.4412 14.605 17.5651C14.1784 17.4162 14.2404 17.2922 14.7911 17.1934Z" fill="#C6D3DD"/>
</g>
<g id="Group_28">
<path id="Vector_28" opacity="0.6" fill-rule="evenodd" clip-rule="evenodd" d="M32.4658 17.1934C33.0165 17.2922 33.0785 17.4162 32.6519 17.5651C32.5899 17.4412 32.5278 17.3173 32.4658 17.1934Z" fill="#C3D3DD"/>
</g>
<g id="Group_29">
<path id="Vector_29" fill-rule="evenodd" clip-rule="evenodd" d="M38.4199 14.4052C41.5564 18.3911 42.7038 22.9141 41.8619 27.9739C41.5696 29.6249 41.0425 31.1739 40.2805 32.6208C40.0375 32.441 39.9134 32.1931 39.9084 31.8773C42.0723 26.2825 41.6381 20.8921 38.606 15.7063C38.9658 15.1911 38.8417 14.8503 38.2339 14.684C38.3373 14.6128 38.3993 14.5199 38.4199 14.4052Z" fill="#262628"/>
</g>
<g id="Group_30">
<path id="Vector_30" opacity="0.147" fill-rule="evenodd" clip-rule="evenodd" d="M32.0938 18.8662C32.1049 18.7652 32.1669 18.7033 32.2798 18.6803C32.5246 19.7621 32.5246 20.8154 32.2798 21.8401C32.3395 20.813 32.2776 19.8216 32.0938 18.8662Z" fill="#F3F4FC"/>
</g>
<g id="Group_31">
<path id="Vector_31" fill-rule="evenodd" clip-rule="evenodd" d="M9.0233 17.3792C8.99893 17.5165 9.02995 17.6404 9.11633 17.7509C9.29814 17.5142 9.4532 17.5142 9.58146 17.7509C7.24908 23.1368 7.49714 28.4031 10.3257 33.5502C10.3257 33.736 10.3257 33.9219 10.3257 34.1078C10.1396 34.1078 9.95356 34.1078 9.76751 34.1078C6.63531 28.631 6.38725 23.0548 9.0233 17.3792Z" fill="#242526"/>
</g>
<g id="Group_32">
<path id="Vector_32" fill-rule="evenodd" clip-rule="evenodd" d="M31.3499 18.1227C31.2686 18.4153 31.0825 18.6322 30.7917 18.7732C31.2215 18.8656 31.6556 18.8965 32.0941 18.8662C31.7358 19.0494 31.3637 19.2353 30.9778 19.4238C30.8282 19.7377 30.6421 20.0474 30.4196 20.3532C30.2939 20.1483 30.1699 19.9625 30.0475 19.7955C29.9856 19.5478 29.9234 19.5478 29.8615 19.7955C27.7969 20.6797 25.7192 21.5472 23.6287 22.3978C21.5857 21.5465 19.5702 20.679 17.582 19.7955C18.0205 19.8258 18.4547 19.795 18.8844 19.7026C18.5219 19.5199 18.1808 19.303 17.8611 19.052C17.6178 19.1731 17.4627 19.0493 17.396 18.6803C19.479 19.4669 21.5565 20.2725 23.6287 21.0967C26.1959 20.0773 28.7695 19.0859 31.3499 18.1227Z" fill="#355170"/>
</g>
<g id="Group_33">
<path id="Vector_33" fill-rule="evenodd" clip-rule="evenodd" d="M48.4665 19.6096C48.6518 19.5936 48.8067 19.6557 48.9316 19.7955C48.9748 20.0254 49.0678 20.2113 49.2107 20.3531C49.2726 20.3531 49.3348 20.3531 49.3967 20.3531C49.3967 23.4511 49.3967 26.5489 49.3967 29.6468C48.9251 31.4942 48.3048 33.291 47.5362 35.0371C47.3114 35.1736 47.0634 35.2355 46.792 35.223C49.0968 30.2096 49.655 25.0052 48.4665 19.6096Z" fill="#1F2124"/>
</g>
<g id="Group_34">
<path id="Vector_34" fill-rule="evenodd" clip-rule="evenodd" d="M11.0701 13.8476C10.2448 14.9387 9.56257 16.1159 9.02352 17.3792C6.38747 23.0548 6.63553 28.631 9.76773 34.1078C11.327 36.595 13.3736 38.5777 15.9074 40.0558C19.3066 42.0329 22.9655 42.7453 26.8845 42.1933C28.0734 42.1117 29.1897 41.8329 30.2334 41.3569C30.6055 41.295 30.9776 41.2329 31.3497 41.171C31.4026 41.5269 31.3406 41.8366 31.1637 42.1004C30.197 41.9589 29.5769 42.3307 29.3032 43.2156C29.2827 43.5639 29.4066 43.8427 29.6753 44.052C30.1486 44.255 30.6448 44.379 31.1637 44.4238C31.7098 44.9546 31.6167 45.2953 30.8846 45.4461C30.4822 45.447 30.2031 45.2611 30.0474 44.8885C29.8401 45.1158 29.809 45.3636 29.9544 45.632C30.4746 45.8511 31.0016 45.8511 31.5358 45.632C31.432 45.8717 31.2459 46.0266 30.9776 46.0966C30.2316 46.1898 29.4874 46.2827 28.745 46.3755C28.7534 45.363 28.5673 45.2701 28.1869 46.0966C27.8198 46.1887 27.4477 46.2197 27.0706 46.1896C27.0706 45.6939 27.0706 45.1983 27.0706 44.7026C27.462 44.7582 27.8341 44.6963 28.1869 44.5167C27.7695 44.3357 27.3355 44.2736 26.8845 44.3309C26.8845 43.9591 26.8845 43.5874 26.8845 43.2156C27.2566 43.2156 27.6287 43.2156 28.0008 43.2156C27.9601 43.434 28.022 43.6199 28.1869 43.7732C28.364 43.4861 28.4259 43.1762 28.3729 42.8439C27.4241 42.8307 26.4938 42.9546 25.5821 43.2156C26.0504 43.5794 26.2676 44.0751 26.2333 44.7026C26.2644 44.9814 26.2953 45.2602 26.3263 45.539C26.3023 45.9072 26.1782 46.2169 25.9542 46.4684C26.5137 46.5243 27.0719 46.4935 27.6287 46.3755C26.8705 46.6314 26.0953 46.8794 25.3031 47.119C24.7319 46.8896 24.2048 46.9825 23.7216 47.3978C23.8193 47.5264 23.9434 47.6193 24.0937 47.6766C24.5015 47.6706 24.9358 47.6398 25.3961 47.5836C25.458 47.6455 25.5202 47.7076 25.5821 47.7695C24.8679 48.0721 24.1546 48.0411 23.4425 47.6766C23.1685 47.7515 22.9205 47.8755 22.6983 48.0483C21.9932 48.024 21.2179 47.9621 20.3727 47.8624C20.0212 47.8506 19.7111 47.9435 19.4424 48.1413C19.5665 48.2652 19.6904 48.389 19.8145 48.513C21.6557 48.6433 23.4853 48.8602 25.3031 49.1636C26.1952 49.0041 27.0944 48.9422 28.0008 48.9777C24.4202 49.6396 20.8853 49.3916 17.3959 48.2342C11.8689 46.4268 7.46565 43.1431 4.18617 38.3829C2.19879 35.1844 0.927425 31.7147 0.372111 27.974C-0.230197 23.0405 0.607036 18.3937 2.88381 14.0335C2.89821 14.2658 3.02223 14.4206 3.25591 14.4981C2.91267 15.5368 2.54056 16.5591 2.1396 17.5651C2.4497 17.5651 2.75977 17.5651 3.06986 17.5651C3.12071 17.9277 2.99667 18.2065 2.69776 18.4015C2.93663 18.5286 3.15368 18.4976 3.34894 18.3085C3.47616 18.5472 3.44515 18.7641 3.25591 18.9591C3.74821 19.0515 4.24435 19.0825 4.74433 19.052C4.77348 18.7968 4.74247 18.5489 4.6513 18.3085C4.38767 18.2011 4.23261 18.0153 4.18617 17.7509C4.18061 17.5656 4.27364 17.4417 4.46525 17.3792C4.76943 17.4494 5.04851 17.5733 5.30248 17.7509C4.8706 18.7167 5.14968 19.3362 6.13972 19.6097C6.53992 19.5831 6.84999 19.3972 7.06998 19.052C7.23231 18.4725 7.44937 17.9148 7.72116 17.3792C6.97656 17.4117 6.23235 17.2568 5.48854 16.9145C5.01275 16.7871 4.67166 16.5083 4.46525 16.0781C4.22794 16.5164 4.01088 16.9501 3.81407 17.3792C3.67788 16.7673 3.64688 16.1477 3.72104 15.5204C4.33321 15.6735 4.92238 15.8284 5.48854 15.9851C5.46671 15.3801 5.34267 14.7605 5.11643 14.1264C5.21768 13.9931 5.34172 13.9001 5.48854 13.8476C5.50225 15.1323 6.15343 15.8758 7.44208 16.0781C8.90069 15.7401 9.39684 14.8727 8.9305 13.4758C7.67814 12.1813 6.53082 12.2433 5.48854 13.6617C5.47414 13.4294 5.35011 13.2745 5.11643 13.197C6.03106 12.1417 7.11638 11.9248 8.37234 12.5465C8.89902 12.404 9.33313 12.5898 9.6747 13.1041C9.6747 13.7237 9.6747 14.3433 9.6747 14.9628C10.1397 14.7171 10.4188 14.3453 10.5119 13.8476C10.698 13.8476 10.884 13.8476 11.0701 13.8476Z" fill="#7F97A8"/>
</g>
<g id="Group_35">
<path id="Vector_35" fill-rule="evenodd" clip-rule="evenodd" d="M3.0699 19.7955C3.35793 19.8552 3.48197 20.0411 3.442 20.3532C4.28508 20.4264 5.12231 20.5504 5.9537 20.7249C6.20043 20.6775 6.38648 20.5535 6.51186 20.3532C6.52148 21.2266 6.42845 22.094 6.23278 22.9554C5.95783 23.0041 5.70975 22.9422 5.48857 22.7695C5.64207 22.6048 5.82812 22.5429 6.04673 22.5836C6.10874 22.2119 6.17077 21.8401 6.23278 21.4684C5.80382 21.3768 5.36969 21.3149 4.93042 21.2825C4.85853 22.7506 4.67248 22.7506 4.37226 21.2825C4.01716 21.1249 3.64506 21.0628 3.25595 21.0966C3.18345 21.6479 3.30749 22.1435 3.62806 22.5836C3.41397 22.8124 3.19692 22.8124 2.97687 22.5836C2.90463 21.6522 2.93565 20.7229 3.0699 19.7955Z" fill="#090E14"/>
</g>
<g id="Group_36">
<path id="Vector_36" fill-rule="evenodd" clip-rule="evenodd" d="M4.18607 17.751C3.93801 17.751 3.81396 17.6271 3.81396 17.3792C4.01077 16.9502 4.22784 16.5165 4.46515 16.0781C4.67155 16.5084 5.01264 16.7872 5.48843 16.9146C6.23225 17.2568 6.97646 17.4117 7.72105 17.3792C7.44927 17.9149 7.2322 18.4725 7.06987 19.0521C6.84988 19.3973 6.53981 19.5831 6.13961 19.6097C5.14958 19.3363 4.8705 18.7168 5.30238 17.751C5.0484 17.5734 4.76932 17.4494 4.46515 17.3792C4.27353 17.4417 4.18051 17.5656 4.18607 17.751Z" fill="#080D13"/>
</g>
<g id="Group_37">
<path id="Vector_37" fill-rule="evenodd" clip-rule="evenodd" d="M5.48862 17.751C5.97465 17.9128 6.47079 18.0367 6.97704 18.1227C6.77253 18.9727 6.3074 19.0965 5.58165 18.4945C5.49048 18.2541 5.45947 18.0063 5.48862 17.751Z" fill="#7B8B97"/>
</g>
<g id="Group_38">
<path id="Vector_38" opacity="0.714" fill-rule="evenodd" clip-rule="evenodd" d="M16.2794 19.2379C16.3414 19.2379 16.4034 19.2379 16.4654 19.2379C16.4062 22.3502 16.4682 25.4481 16.6515 28.5316C16.2821 25.5019 16.158 22.4041 16.2794 19.2379Z" fill="#8195A4"/>
</g>
<g id="Group_39">
<path id="Vector_39" fill-rule="evenodd" clip-rule="evenodd" d="M33.3962 21.6542C33.7075 21.8109 33.9246 22.0587 34.0474 22.3977C34.1883 23.4477 34.2813 24.5011 34.3265 25.5576C33.3599 25.6173 32.4297 25.5552 31.5357 25.3717C31.518 24.3704 31.6111 23.3791 31.8148 22.3977C31.8849 22.1297 32.0399 21.9438 32.2799 21.8401C32.5248 20.8154 32.5248 19.762 32.2799 18.6803C32.167 18.7033 32.105 18.7652 32.0939 18.8661C31.6553 18.8964 31.2213 18.8656 30.7915 18.7732C31.0823 18.6321 31.2684 18.4153 31.3497 18.1226C31.9649 18.0203 32.585 17.9583 33.2102 17.9368C33.1499 19.2107 33.2119 20.45 33.3962 21.6542ZM33.0241 22.7695C33.0167 23.3979 33.0786 24.0174 33.2102 24.6282C33.0241 24.6282 32.8381 24.6282 32.652 24.6282C32.652 24.3804 32.652 24.1325 32.652 23.8847C32.652 23.8228 32.652 23.7607 32.652 23.6988C32.7761 23.389 32.9 23.0793 33.0241 22.7695Z" fill="#214264"/>
</g>
<g id="Group_40">
<path id="Vector_40" opacity="0.51" fill-rule="evenodd" clip-rule="evenodd" d="M32.652 23.8848C32.652 24.1325 32.652 24.3805 32.652 24.6283C32.8381 24.6283 33.0241 24.6283 33.2102 24.6283C33.0115 24.8019 32.7635 24.8639 32.466 24.8141C32.4132 24.4582 32.4751 24.1485 32.652 23.8848Z" fill="#A0B2BF"/>
</g>
<g id="Group_41">
<path id="Vector_41" opacity="0.259" fill-rule="evenodd" clip-rule="evenodd" d="M33.0242 22.7695C32.9001 23.0793 32.7762 23.389 32.6521 23.6989C32.5964 23.3078 32.6584 22.936 32.8381 22.5836C32.951 22.6067 33.013 22.6686 33.0242 22.7695Z" fill="#DFE8EE"/>
</g>
<g id="Group_42">
<path id="Vector_42" fill-rule="evenodd" clip-rule="evenodd" d="M5.86083 23.6989C6.08289 23.7862 6.20691 23.9721 6.23294 24.2565C6.20192 24.4423 6.17093 24.6282 6.13991 24.8141C5.48873 25.3407 4.83755 25.8674 4.18637 26.394C4.49646 26.4251 4.80653 26.4559 5.11663 26.487C5.51502 26.466 5.85613 26.342 6.13991 26.1152C6.26395 26.487 6.26395 26.8587 6.13991 27.2305C5.92032 27.0104 5.64124 26.8864 5.30268 26.8587C4.4393 26.9946 3.57106 27.0565 2.69795 27.0446C2.66632 26.7989 2.72835 26.5819 2.884 26.394C3.68085 25.908 4.42505 25.3503 5.11663 24.7212C4.74452 24.6901 4.37242 24.6593 4.00032 24.6282C3.54194 24.6449 3.13884 24.7689 2.79098 25C2.66694 24.6282 2.66694 24.2565 2.79098 23.8847C3.10684 24.1139 3.47894 24.2379 3.90729 24.2565C4.40794 24.2278 4.90408 24.166 5.3957 24.0706C5.65164 24.0364 5.80667 23.9124 5.86083 23.6989Z" fill="#10161B"/>
</g>
<g id="Group_43">
<path id="Vector_43" opacity="0.49" fill-rule="evenodd" clip-rule="evenodd" d="M31.5357 25.3717C32.4296 25.5552 33.3599 25.6172 34.3264 25.5576C33.3627 25.802 32.3703 25.802 31.3496 25.5576C31.3727 25.4448 31.4346 25.3829 31.5357 25.3717Z" fill="#C2D0DA"/>
</g>
<g id="Group_44">
<path id="Vector_44" fill-rule="evenodd" clip-rule="evenodd" d="M17.3956 18.6803C17.4623 19.0492 17.6174 19.173 17.8608 19.052C18.1804 19.3029 18.5215 19.5199 18.884 19.7026C18.4543 19.795 18.0202 19.8258 17.5817 19.7955C17.5705 19.6946 17.5085 19.6327 17.3956 19.6096C17.1494 21.56 17.1494 23.4806 17.3956 25.3717C21.4916 26.5894 25.5847 26.5894 29.675 25.3717C30.0423 23.5853 30.1664 21.7266 30.0472 19.7955C30.1696 19.9624 30.2935 20.1483 30.4193 20.3531C30.6418 20.0474 30.8278 19.7377 30.9774 19.4238C30.9774 22.4596 30.9774 25.4957 30.9774 28.5316C28.5431 29.2054 26.0623 29.6392 23.5353 29.8327C23.0298 29.8115 22.5336 29.7494 22.0469 29.6468C21.2769 29.4492 20.4707 29.3253 19.6282 29.2751C19.5663 29.2751 19.5042 29.2751 19.4422 29.2751C19.2435 29.1015 18.9955 29.0394 18.698 29.0892C17.9674 29.01 17.2852 28.8241 16.6514 28.5316C16.4682 25.4481 16.4062 22.3502 16.4654 19.2379C16.3555 19.1169 16.2314 18.9929 16.0933 18.8661C16.5105 18.6851 16.9446 18.623 17.3956 18.6803ZM17.5817 26.487C17.6437 26.487 17.7057 26.487 17.7677 26.487C18.1583 26.6937 18.5924 26.8176 19.0701 26.8587C22.5798 27.6689 26.0526 27.545 29.489 26.487C29.711 26.5743 29.8351 26.7602 29.8611 27.0446C29.8047 27.3446 29.6806 27.5925 29.489 27.7881C29.0114 27.8292 28.5772 27.9531 28.1866 28.1598C26.7042 28.3803 25.2158 28.5661 23.7214 28.7174C21.6471 28.5754 19.6005 28.2658 17.5817 27.7881C17.3479 27.3344 17.3479 26.9007 17.5817 26.487ZM17.5817 19.7955C19.5698 20.679 21.5853 21.5464 23.6284 22.3977C25.7188 21.5472 27.7965 20.6797 29.8611 19.7955C29.9182 21.6695 29.8563 23.5282 29.675 25.3717C25.5847 26.5894 21.4916 26.5894 17.3956 25.3717C17.3347 23.4793 17.3967 21.6206 17.5817 19.7955Z" fill="#294869"/>
</g>
<g id="Group_45">
<path id="Vector_45" fill-rule="evenodd" clip-rule="evenodd" d="M17.7681 26.487C18.2757 26.4258 18.7099 26.5496 19.0704 26.8587C18.5928 26.8176 18.1587 26.6937 17.7681 26.487Z" fill="#909FB0"/>
</g>
<g id="Group_46">
<path id="Vector_46" opacity="0.356" fill-rule="evenodd" clip-rule="evenodd" d="M17.5821 19.7955C17.3972 21.6206 17.3352 23.4793 17.3961 25.3717C17.1499 23.4806 17.1499 21.56 17.3961 19.6096C17.5089 19.6327 17.571 19.6946 17.5821 19.7955Z" fill="#D7E0E8"/>
</g>
<g id="Group_47">
<path id="Vector_47" opacity="0.08" fill-rule="evenodd" clip-rule="evenodd" d="M30.0474 19.7956C30.1667 21.7266 30.0426 23.5853 29.6753 25.3718C29.8565 23.5283 29.9185 21.6695 29.8613 19.7956C29.9233 19.5478 29.9854 19.5478 30.0474 19.7956Z" fill="#FBFCFD"/>
</g>
<g id="Group_48">
<path id="Vector_48" opacity="0.057" fill-rule="evenodd" clip-rule="evenodd" d="M29.4893 26.487C29.6212 26.3189 29.8072 26.257 30.0474 26.3011C30.0474 26.7968 30.0474 27.2924 30.0474 27.7881C29.8614 27.7881 29.6753 27.7881 29.4893 27.7881C29.6809 27.5925 29.805 27.3446 29.8614 27.0446C29.8353 26.7602 29.7112 26.5743 29.4893 26.487Z" fill="#EDF2F6"/>
</g>
<g id="Group_49">
<path id="Vector_49" fill-rule="evenodd" clip-rule="evenodd" d="M38.4199 4.92566C39.4615 5.59311 40.4537 6.33661 41.3968 7.15614C44.9558 10.61 47.3123 14.7612 48.4667 19.6097C49.6552 25.0052 49.0971 30.2097 46.7923 35.2231C46.7119 35.448 46.5878 35.6338 46.4202 35.7807C46.4202 35.4708 46.4202 35.1612 46.4202 34.8513C46.1647 34.8805 45.9165 34.8495 45.676 34.7584C46.0032 34.3156 46.3753 33.913 46.7923 33.5502C46.6706 33.25 46.5776 32.9402 46.5132 32.6208C46.1722 33.0855 45.8309 33.5502 45.4899 34.0149C44.6236 34.1385 43.7553 34.2314 42.8852 34.2937C42.8943 34.7768 43.0803 35.1796 43.4433 35.5019C43.3399 35.5731 43.2779 35.666 43.2573 35.7807C42.5401 35.2491 41.8269 34.6915 41.1177 34.1078C41.0029 33.9314 41.0338 33.7766 41.2107 33.6431C41.0866 33.5192 40.9627 33.5192 40.8386 33.6431C40.6756 33.9379 40.4896 34.2167 40.2805 34.4796C40.5067 34.5903 40.7547 34.6214 41.0247 34.5725C41.5508 34.9903 42.109 35.3621 42.6991 35.6877C43.0083 36.3377 42.8223 36.8024 42.141 37.0818C41.5458 36.6424 40.9257 36.2398 40.2805 35.8736C40.1452 35.6136 40.0522 35.3348 40.0014 35.0372C39.6376 35.4853 39.2964 35.95 38.9781 36.4312C39.7376 36.345 40.3577 36.6238 40.8386 37.2677C40.5707 37.4281 40.3225 37.4281 40.0944 37.2677C40.1711 37.506 40.0471 37.6918 39.7223 37.8253C39.2549 37.5599 38.7589 37.4669 38.2339 37.5465C37.4435 37.9634 36.7615 38.521 36.1873 39.2193C36.9306 39.1303 37.4268 39.471 37.6757 40.2416C37.4277 40.2416 37.1795 40.2416 36.9315 40.2416C36.7445 39.3056 36.4965 39.3056 36.1873 40.2416C36.7618 40.1853 37.0718 40.4331 37.1176 40.9851C36.7724 40.9428 36.6175 41.0667 36.6524 41.3569C36.9125 41.2545 37.1607 41.1926 37.3966 41.171C38.0666 41.6597 38.1288 42.2794 37.5827 43.0298C37.3993 43.1545 37.1821 43.1545 36.9315 43.0298C37.7222 42.7147 37.8153 42.2811 37.2106 41.7286C36.6969 43.2788 36.1077 43.3409 35.4431 41.9145C36.7137 41.1771 36.6828 41.0534 35.3501 41.5428C34.5828 41.1086 34.5517 40.6439 35.2571 40.1487C35.5354 40.0545 35.7525 40.1474 35.9082 40.4275C36.0632 39.8389 35.8463 39.6221 35.2571 39.777C34.6634 40.2279 34.0431 40.6307 33.3965 40.9851C33.3965 40.7993 33.3965 40.6134 33.3965 40.4275C33.2105 40.4275 33.0244 40.4275 32.8384 40.4275C36.144 38.6119 38.6248 36.0097 40.2805 32.6208C41.0425 31.174 41.5696 29.6249 41.8619 27.974C42.7038 22.9141 41.5564 18.3911 38.4199 14.4052C37.9308 13.6687 37.3726 12.9871 36.7455 12.3606C37.285 12.431 37.7191 12.6789 38.0478 13.1041C38.5528 13.2442 39.0179 13.2442 39.4432 13.1041C39.6283 13.2093 39.7833 13.3332 39.9083 13.4758C40.3143 13.3272 40.6245 13.0484 40.8386 12.6394C41.4537 12.5108 41.981 12.232 42.42 11.803C42.7624 12.0508 42.8554 12.0198 42.6991 11.71C43.0751 11.6355 43.3233 11.4186 43.4433 11.0595C43.4152 10.6571 43.2913 10.2234 43.0712 9.75837C42.7362 9.27055 42.3332 9.02272 41.8619 9.01488C41.593 8.53339 41.3759 8.03774 41.2107 7.52789C40.6846 7.70655 40.1884 7.67559 39.7223 7.43495C39.7569 7.08802 39.6949 6.71627 39.5362 6.31971C39.2181 6.02025 38.8771 5.74144 38.513 5.48328C38.4231 5.30707 38.3922 5.1212 38.4199 4.92566Z" fill="#7F97A8"/>
</g>
<g id="Group_50">
<path id="Vector_50" fill-rule="evenodd" clip-rule="evenodd" d="M46.2337 24.2565C45.3315 24.3803 44.4013 24.5043 43.4429 24.6283C43.4818 24.7372 43.5439 24.8301 43.629 24.9071C44.5315 24.9394 45.3998 25.0324 46.2337 25.1859C45.3034 25.1859 44.3732 25.1859 43.4429 25.1859C43.4103 25.7117 43.6584 26.0216 44.1871 26.1153C43.8344 26.2948 43.4623 26.3567 43.0708 26.3012C43.0708 25.2478 43.0708 24.1946 43.0708 23.1413C43.4623 23.0857 43.8344 23.1476 44.1871 23.3272C43.6584 23.4209 43.4103 23.7307 43.4429 24.2565C44.3732 24.2565 45.3034 24.2565 46.2337 24.2565Z" fill="#1B252C"/>
</g>
<g id="Group_51">
<path id="Vector_51" fill-rule="evenodd" clip-rule="evenodd" d="M46.2336 25.1859C45.3998 25.0323 44.5315 24.9394 43.6289 24.9071C43.5439 24.8301 43.4818 24.7372 43.4429 24.6283C44.4012 24.5043 45.3315 24.3803 46.2336 24.2565C46.368 24.1788 46.461 24.055 46.5127 23.8848C46.6368 24.4424 46.6368 25 46.5127 25.5576C46.461 25.3874 46.368 25.2636 46.2336 25.1859Z" fill="#000307"/>
</g>
<g id="Group_52">
<path id="Vector_52" fill-rule="evenodd" clip-rule="evenodd" d="M46.0477 20.5391C46.2615 20.5932 46.3856 20.748 46.4198 21.0037C46.5966 21.4192 46.5966 21.822 46.4198 22.2119C46.2109 22.0179 45.9629 21.8941 45.6756 21.8402C44.8706 21.9846 44.0644 22.1086 43.257 22.2119C43.2847 22.4075 43.2538 22.5933 43.1639 22.7695C42.9548 22.2227 42.8927 21.6651 42.9779 21.0967C43.9867 21.232 45.0099 21.232 46.0477 21.0967C46.0477 20.9108 46.0477 20.7249 46.0477 20.5391Z" fill="#11151A"/>
</g>
<g id="Group_53">
<path id="Vector_53" fill-rule="evenodd" clip-rule="evenodd" d="M43.2572 16.6357C44.6485 16.3361 45.4547 16.8627 45.6759 18.2156C45.541 19.4028 44.8589 19.9913 43.6293 19.9814C43.1435 19.971 42.7404 19.7851 42.42 19.4238C42.1402 18.766 42.0782 18.0845 42.2339 17.3792C42.5711 17.1046 42.9121 16.8568 43.2572 16.6357Z" fill="#070C11"/>
</g>
<g id="Group_54">
<path id="Vector_54" fill-rule="evenodd" clip-rule="evenodd" d="M43.443 17.3792C44.0045 17.3486 44.5626 17.3796 45.1174 17.4721C45.3176 17.793 45.3487 18.1337 45.2105 18.4944C44.4767 19.1251 43.6394 19.3418 42.6988 19.145C42.4958 18.7614 42.4647 18.3587 42.6057 17.9368C42.9131 17.7696 43.1922 17.5838 43.443 17.3792Z" fill="#8095A3"/>
</g>
<g id="Group_55">
<path id="Vector_55" fill-rule="evenodd" clip-rule="evenodd" d="M39.9082 13.4758C40.048 13.6753 40.234 13.7063 40.4664 13.5687C41.2571 13.1274 42.0322 12.6627 42.792 12.1747C42.9539 12.2877 43.0469 12.4426 43.0711 12.6394C42.6354 13.5716 42.2013 14.501 41.7688 15.4275C42.4136 15.2293 43.0337 14.9195 43.6293 14.4981C43.6715 14.2871 43.7335 14.0702 43.8153 13.8475C44.0406 14.2048 44.2886 14.5455 44.5595 14.8698C44.0356 14.7527 43.5396 14.8766 43.0711 15.2416C42.3626 15.5166 41.8354 15.9813 41.4897 16.6356C41.2361 16.3768 41.0811 16.067 41.0246 15.7063C41.2707 14.8135 41.6428 13.9771 42.1409 13.197C41.5581 13.3641 41 13.6429 40.4664 14.0334C40.3737 14.2385 40.3118 14.4244 40.2803 14.591C40.1254 14.4052 39.9702 14.2193 39.8152 14.0334C39.6775 13.8012 39.7086 13.6153 39.9082 13.4758Z" fill="#080E13"/>
</g>
<g id="Group_56">
<path id="Vector_56" opacity="0.243" fill-rule="evenodd" clip-rule="evenodd" d="M17.5821 26.487C17.3483 26.9008 17.3483 27.3344 17.5821 27.7881C17.3499 27.6331 17.2258 27.3853 17.21 27.0446C17.272 26.7969 17.334 26.5489 17.396 26.3011C17.5089 26.3242 17.5709 26.3861 17.5821 26.487Z" fill="#E0EAEF"/>
</g>
<g id="Group_57">
<path id="Vector_57" fill-rule="evenodd" clip-rule="evenodd" d="M29.4894 27.7881C29.1288 28.0972 28.6946 28.221 28.187 28.1598C28.5775 27.9531 29.0118 27.8292 29.4894 27.7881Z" fill="#8396A5"/>
</g>
<g id="Group_58">
<path id="Vector_58" fill-rule="evenodd" clip-rule="evenodd" d="M46.4198 27.2305C46.6118 27.7201 46.5498 28.2158 46.2337 28.7175C45.9213 28.4193 45.5492 28.2953 45.1174 28.3457C45.0871 28.7838 45.118 29.2175 45.2104 29.6468C45.4584 29.8946 45.7066 29.8946 45.9546 29.6468C46.0728 30.0437 46.0106 30.4154 45.7686 30.7621C45.699 30.5918 45.606 30.4368 45.4895 30.2974C44.5343 29.7455 43.6041 29.1569 42.6987 28.5316C42.7666 28.271 42.9218 28.0851 43.1639 27.974C44.1183 27.7846 45.0796 27.6297 46.0477 27.5093C46.2181 27.4576 46.342 27.3647 46.4198 27.2305Z" fill="#0D1319"/>
</g>
<g id="Group_59">
<path id="Vector_59" fill-rule="evenodd" clip-rule="evenodd" d="M43.4429 28.7175C43.8349 28.5375 44.2691 28.4755 44.7452 28.5316C44.794 28.8063 44.732 29.0541 44.5592 29.2751C44.1821 29.0868 43.81 28.9009 43.4429 28.7175Z" fill="#82919C"/>
</g>
<g id="Group_60">
<path id="Vector_60" opacity="0.024" fill-rule="evenodd" clip-rule="evenodd" d="M18.6982 29.0893C18.9957 29.0395 19.2437 29.1015 19.4424 29.2751C19.4424 29.3991 19.5044 29.461 19.6285 29.461C19.6285 29.5229 19.6285 29.585 19.6285 29.6469C19.4222 29.6363 19.2361 29.5744 19.0703 29.461C18.9462 29.337 18.8223 29.2132 18.6982 29.0893Z" fill="#E6ECEF"/>
</g>
<g id="Group_61">
<path id="Vector_61" opacity="0.486" fill-rule="evenodd" clip-rule="evenodd" d="M19.6284 29.461C19.6284 29.3991 19.6284 29.337 19.6284 29.2751C20.4709 29.3253 21.277 29.4493 22.0471 29.6469C21.2342 29.653 20.4281 29.5911 19.6284 29.461Z" fill="#ADBAC5"/>
</g>
<g id="Group_62">
<path id="Vector_62" fill-rule="evenodd" clip-rule="evenodd" d="M19.0704 29.4609C18.9798 29.6418 18.8868 29.8277 18.7913 30.0186C18.6079 29.8938 18.3908 29.8938 18.1401 30.0186C18.3558 29.6933 18.6659 29.5074 19.0704 29.4609Z" fill="#7F92A1"/>
</g>
<g id="Group_63">
<path id="Vector_63" opacity="0.045" fill-rule="evenodd" clip-rule="evenodd" d="M22.7915 31.3197C22.9234 31.1517 23.1095 31.0898 23.3497 31.1339C23.4066 31.6701 23.3446 32.1658 23.1636 32.6208C23.2585 32.084 23.1346 31.6504 22.7915 31.3197Z" fill="#F6F7F8"/>
</g>
<g id="Group_64">
<path id="Vector_64" fill-rule="evenodd" clip-rule="evenodd" d="M6.60501 29.2751C7.24968 30.0792 7.46673 31.0086 7.25619 32.0633C6.76005 32.559 6.26392 32.559 5.76778 32.0633C5.30514 32.4924 4.93304 32.9882 4.65147 33.5502C4.37485 33.2209 4.31283 32.8491 4.46542 32.435C4.81743 32.1462 5.0965 31.8053 5.30265 31.4127C5.24064 31.3198 5.17861 31.2268 5.1166 31.1339C4.51883 31.1751 4.17774 31.4848 4.09331 32.0633C3.75462 31.5439 3.56857 30.9863 3.53516 30.3904C3.66336 30.5497 3.8184 30.6735 4.00029 30.7621C4.82109 30.4889 5.62731 30.179 6.41896 29.8328C6.58375 29.6794 6.64576 29.4935 6.60501 29.2751Z" fill="#070C11"/>
</g>
<g id="Group_65">
<path id="Vector_65" fill-rule="evenodd" clip-rule="evenodd" d="M6.41901 30.5762C6.60506 30.5762 6.79112 30.5762 6.97717 30.5762C7.07693 31.2016 6.82885 31.5734 6.23296 31.6914C5.90432 31.7037 5.71827 31.5487 5.6748 31.2267C5.89539 30.9643 6.14347 30.7474 6.41901 30.5762Z" fill="#7E919D"/>
</g>
<g id="Group_66">
<path id="Vector_66" opacity="0.076" fill-rule="evenodd" clip-rule="evenodd" d="M17.7681 30.2045C17.8735 31.0396 17.9975 31.876 18.1402 32.7138C18.1395 33.1526 18.0774 33.5552 17.9541 33.9219C17.9923 32.9113 17.8683 31.9199 17.582 30.948C17.584 30.6608 17.6461 30.413 17.7681 30.2045Z" fill="#EEF2F5"/>
</g>
<g id="Group_67">
<path id="Vector_67" opacity="0.259" fill-rule="evenodd" clip-rule="evenodd" d="M16.6517 31.3197C15.9695 31.3197 15.2873 31.3197 14.6051 31.3197C14.6051 32.311 14.6051 33.3024 14.6051 34.2937C14.4211 33.276 14.3591 32.2227 14.4191 31.1338C15.2008 31.0749 15.945 31.137 16.6517 31.3197Z" fill="#E0E7ED"/>
</g>
<g id="Group_68">
<path id="Vector_68" opacity="0.145" fill-rule="evenodd" clip-rule="evenodd" d="M26.1403 31.8774C25.9557 31.8454 25.8318 31.9075 25.7682 32.0632C25.6177 32.3963 25.5246 32.7681 25.4891 33.1785C25.365 33.4263 25.2411 33.4263 25.117 33.1785C24.9929 32.4969 24.9929 31.8155 25.117 31.1339C25.194 31.0489 25.287 30.9868 25.3961 30.948C25.5689 31.169 25.6309 31.4168 25.5821 31.6915C25.8223 31.6474 26.0084 31.7093 26.1403 31.8774Z" fill="#B2BAC2"/>
</g>
<g id="Group_69">
<path id="Vector_69" opacity="0.231" fill-rule="evenodd" clip-rule="evenodd" d="M31.7218 31.5055C31.7112 31.7117 31.6492 31.8976 31.5357 32.0632C31.412 32.4717 31.2879 32.9054 31.1636 33.3643C31.1017 33.3332 31.0395 33.3024 30.9776 33.2713C30.8535 32.6518 30.7296 32.0321 30.6055 31.4126C31.0981 30.7416 31.3772 30.8345 31.4427 31.6914C31.514 31.5881 31.607 31.5262 31.7218 31.5055Z" fill="#B8C0C8"/>
</g>
<g id="Group_70">
<path id="Vector_70" opacity="0.949" fill-rule="evenodd" clip-rule="evenodd" d="M34.6988 32.8067C34.5473 32.4106 34.4543 31.9769 34.4197 31.5055C34.3484 31.6089 34.2554 31.6708 34.1406 31.6914C34.1871 31.4271 34.3421 31.2412 34.6058 31.1338C34.6876 31.4267 34.8426 31.6747 35.0709 31.8773C34.7909 32.1267 34.6668 32.4364 34.6988 32.8067Z" fill="#9BA9B3"/>
</g>
<g id="Group_71">
<path id="Vector_71" opacity="0.286" fill-rule="evenodd" clip-rule="evenodd" d="M28.1869 31.8773C27.9666 32.2323 27.6875 32.2942 27.3497 32.0632C27.2578 32.3669 27.2269 32.6767 27.2567 32.9925C27.1326 32.8067 27.0086 32.6208 26.8845 32.4349C26.9532 31.9715 26.8293 31.8476 26.5124 32.0632C26.5069 31.8779 26.5999 31.7539 26.7915 31.6914C27.2641 31.6903 27.7292 31.7522 28.1869 31.8773Z" fill="#D0D7DE"/>
</g>
<g id="Group_72">
<path id="Vector_72" opacity="0.054" fill-rule="evenodd" clip-rule="evenodd" d="M33.7683 31.8773C33.4315 31.6069 33.1213 31.6379 32.838 31.9703C33.024 32.0322 33.2101 32.0942 33.3961 32.1561C33.4401 32.3638 33.4401 32.5807 33.3961 32.8067C33.385 32.9076 33.323 32.9695 33.2101 32.9926C32.7675 32.29 32.6434 32.3519 32.838 33.1784C32.7139 33.1784 32.59 33.1784 32.4659 33.1784C32.3418 33.0545 32.2179 32.9307 32.0938 32.8067C32.3777 32.6942 32.5638 32.4775 32.6519 32.1561C32.4516 32.0688 32.2655 32.0998 32.0938 32.2491C32.064 31.9418 31.9401 31.694 31.7217 31.5056C31.9985 31.0063 32.1226 31.0682 32.0938 31.6914C32.3492 31.7206 32.5974 31.6896 32.838 31.5985C32.6877 31.5413 32.5636 31.4483 32.4659 31.3197C32.9902 31.0632 33.4864 31.0942 33.9543 31.4126C33.8144 31.5374 33.7522 31.6922 33.7683 31.8773Z" fill="#D0D6DC"/>
</g>
<g id="Group_73">
<path id="Vector_73" fill-rule="evenodd" clip-rule="evenodd" d="M34.6988 32.8067C34.9837 33.0716 34.9217 33.1954 34.5128 33.1785C34.1816 32.9015 34.0577 32.5298 34.1407 32.0632C34.1407 31.9393 34.1407 31.8155 34.1407 31.6915C34.2555 31.6709 34.3485 31.609 34.4198 31.5056C34.4544 31.977 34.5474 32.4106 34.6988 32.8067Z" fill="#4E6174"/>
</g>
<g id="Group_74">
<path id="Vector_74" fill-rule="evenodd" clip-rule="evenodd" d="M24.4659 31.6914C24.6311 32.1661 24.6931 32.6619 24.652 33.1784C24.3424 32.9091 24.1872 32.5373 24.1868 32.0632C24.0947 32.4299 24.0637 32.8016 24.0938 33.1784C23.9077 33.1784 23.7217 33.1784 23.5356 33.1784C23.5356 32.6827 23.5356 32.1871 23.5356 31.6914C23.8458 31.6914 24.1558 31.6914 24.4659 31.6914Z" fill="#647689"/>
</g>
<g id="Group_75">
<path id="Vector_75" opacity="0.618" fill-rule="evenodd" clip-rule="evenodd" d="M30.6057 32.6208C30.2628 32.4822 30.0148 32.2344 29.8615 31.8774C29.6966 32.0307 29.6347 32.2166 29.6754 32.435C29.5411 32.3573 29.4481 32.2335 29.3963 32.0632C29.2067 32.4353 29.0518 32.8071 28.9312 33.1785C28.9693 32.6926 28.9693 32.2588 28.9312 31.8774C28.75 32.2943 28.6878 32.7279 28.7452 33.1785C28.6211 32.9926 28.4971 32.8067 28.373 32.6208C28.373 32.435 28.373 32.2491 28.373 32.0632C29.0564 31.7253 29.8006 31.6015 30.6057 31.6915C30.6057 32.0013 30.6057 32.311 30.6057 32.6208Z" fill="#BDC7D0"/>
</g>
<g id="Group_76">
<path id="Vector_76" fill-rule="evenodd" clip-rule="evenodd" d="M33.7684 31.8773C33.8246 32.3529 33.7625 32.7868 33.5824 33.1784C33.2968 33.3371 33.0488 33.3371 32.8382 33.1784C32.6435 32.3518 32.7676 32.2899 33.2103 32.9925C33.3232 32.9695 33.3851 32.9076 33.3963 32.8066C33.4402 32.5806 33.4402 32.3637 33.3963 32.1561C33.2103 32.0942 33.0242 32.0321 32.8382 31.9702C33.1215 31.6379 33.4317 31.6068 33.7684 31.8773Z" fill="#4A5E73"/>
</g>
<g id="Group_77">
<path id="Vector_77" opacity="0.722" fill-rule="evenodd" clip-rule="evenodd" d="M22.0469 32.6208C21.8955 32.2247 21.8025 31.791 21.7679 31.3197C21.6752 31.8739 21.6441 32.4316 21.6748 32.9925C21.5321 32.8676 21.408 32.7128 21.3027 32.5278C21.4767 32.0853 21.5386 31.6206 21.4888 31.1338C21.6748 31.1338 21.8609 31.1338 22.0469 31.1338C22.0469 31.6295 22.0469 32.1251 22.0469 32.6208Z" fill="#C2C9CE"/>
</g>
<g id="Group_78">
<path id="Vector_78" fill-rule="evenodd" clip-rule="evenodd" d="M30.6055 32.6208C30.6455 32.9329 30.5214 33.1188 30.2334 33.1784C29.7822 33.1442 29.7822 33.0203 30.2334 32.8067C30.2103 32.6939 30.1483 32.632 30.0473 32.6208C29.8627 32.6528 29.7388 32.5907 29.6752 32.4349C29.6345 32.2165 29.6964 32.0307 29.8613 31.8773C30.0146 32.2344 30.2626 32.4822 30.6055 32.6208Z" fill="#4A5F72"/>
</g>
<g id="Group_79">
<path id="Vector_79" fill-rule="evenodd" clip-rule="evenodd" d="M31.7219 31.5056C31.9403 31.6941 32.0642 31.9419 32.094 32.2491C32.094 32.435 32.094 32.6209 32.094 32.8067C32.2181 32.9307 32.342 33.0545 32.4661 33.1785C32.1586 33.4199 31.8795 33.358 31.6289 32.9926C31.537 32.6889 31.5061 32.379 31.5359 32.0632C31.6493 31.8976 31.7113 31.7117 31.7219 31.5056Z" fill="#5C7185"/>
</g>
<g id="Group_80">
<path id="Vector_80" fill-rule="evenodd" clip-rule="evenodd" d="M22.0471 32.6208C22.2682 32.8409 22.4853 32.8409 22.6983 32.6208C22.7908 32.1914 22.8217 31.7578 22.7913 31.3197C23.1344 31.6504 23.2583 32.084 23.1634 32.6208C22.8213 33.3959 22.3253 33.5199 21.675 32.9926C21.6443 32.4316 21.6754 31.874 21.768 31.3197C21.8027 31.7911 21.8957 32.2247 22.0471 32.6208Z" fill="#556778"/>
</g>
<g id="Group_81">
<path id="Vector_81" opacity="0.733" fill-rule="evenodd" clip-rule="evenodd" d="M24.4658 31.6914C24.698 31.8464 24.8221 32.0942 24.8379 32.4349C24.8359 32.7221 24.7739 32.9698 24.6519 33.1784C24.693 32.6619 24.631 32.1661 24.4658 31.6914Z" fill="#97A2AB"/>
</g>
<g id="Group_82">
<path id="Vector_82" opacity="0.941" fill-rule="evenodd" clip-rule="evenodd" d="M26.1402 31.8773C26.2745 31.955 26.3675 32.0788 26.4192 32.249C26.4935 32.2067 26.5244 32.1446 26.5123 32.0632C26.8291 31.8476 26.953 31.9715 26.8844 32.4349C26.8295 32.7923 26.6745 33.1022 26.4192 33.3643C26.0431 33.0124 25.8261 32.5786 25.7681 32.0632C25.8317 31.9074 25.9556 31.8453 26.1402 31.8773Z" fill="#69788C"/>
</g>
<g id="Group_83">
<path id="Vector_83" opacity="0.216" fill-rule="evenodd" clip-rule="evenodd" d="M34.1407 31.6914C34.1407 31.8154 34.1407 31.9392 34.1407 32.0632C34.017 32.4717 33.8929 32.9053 33.7686 33.3643C33.6556 33.3412 33.5937 33.2793 33.5825 33.1784C33.7626 32.7868 33.8248 32.3529 33.7686 31.8773C33.8927 31.8154 34.0166 31.7533 34.1407 31.6914Z" fill="#F3F6FA"/>
</g>
<g id="Group_84">
<path id="Vector_84" fill-rule="evenodd" clip-rule="evenodd" d="M28.9313 33.1784C28.8693 33.4262 28.8072 33.4262 28.7452 33.1784C28.6879 32.7279 28.7501 32.2942 28.9313 31.8773C28.9694 32.2587 28.9694 32.6926 28.9313 33.1784Z" fill="#354C64"/>
</g>
<g id="Group_85">
<path id="Vector_85" opacity="0.459" fill-rule="evenodd" clip-rule="evenodd" d="M34.6987 32.8066C35.3639 32.9381 35.395 33.1239 34.7918 33.3643C34.6494 33.3513 34.5564 33.2894 34.5127 33.1784C34.9216 33.1953 34.9836 33.0715 34.6987 32.8066Z" fill="#D9DCDE"/>
</g>
<g id="Group_86">
<path id="Vector_86" fill-rule="evenodd" clip-rule="evenodd" d="M28.1868 31.8773C28.3109 31.8773 28.3729 31.9392 28.3729 32.0632C28.3729 32.2491 28.3729 32.4349 28.3729 32.6208C28.2454 33.4481 27.8733 33.5719 27.2566 32.9926C27.2268 32.6768 27.2577 32.3669 27.3496 32.0632C27.6875 32.2942 27.9665 32.2323 28.1868 31.8773Z" fill="#808F9F"/>
</g>
<g id="Group_87">
<path id="Vector_87" opacity="0.843" fill-rule="evenodd" clip-rule="evenodd" d="M30.0474 32.6208C30.1484 32.632 30.2104 32.6939 30.2335 32.8067C29.7823 33.0203 29.7823 33.1443 30.2335 33.1785C29.9371 33.4326 29.6891 33.3707 29.4893 32.9926C29.6943 32.8669 29.8803 32.7432 30.0474 32.6208Z" fill="#B4BFC8"/>
</g>
<g id="Group_88">
<path id="Vector_88" fill-rule="evenodd" clip-rule="evenodd" d="M7.90701 32.8066C8.49108 33.4739 8.98722 34.2174 9.39542 35.0371C8.62068 35.7769 8.43463 35.684 8.83726 34.7583C8.7543 34.4375 8.59927 34.1587 8.37214 33.9219C8.00498 34.1338 7.66389 34.3815 7.34885 34.6654C8.04318 35.8061 7.91914 35.868 6.97675 34.8513C5.60512 35.4232 5.66715 35.9808 7.1628 36.5241C7.00877 36.6942 6.82271 36.818 6.60464 36.8959C5.93478 36.2105 5.37663 35.436 4.93018 34.5724C5.97547 34.4715 6.93675 34.0687 7.81398 33.3643C7.90381 33.1881 7.93482 33.0022 7.90701 32.8066Z" fill="#0A1017"/>
</g>
<g id="Group_89">
<path id="Vector_89" fill-rule="evenodd" clip-rule="evenodd" d="M42.3267 30.5762C42.5127 30.5762 42.6988 30.5762 42.8848 30.5762C42.8848 30.8239 42.8848 31.0719 42.8848 31.3197C41.8379 31.5158 41.7138 31.9804 42.5127 32.7137C43.1418 33.131 43.824 33.255 44.5593 33.0855C44.8302 32.6643 44.9854 32.1996 45.0244 31.6914C45.4574 32.9673 44.9922 33.7107 43.629 33.9219C41.5296 33.4455 41.0956 32.3303 42.3267 30.5762Z" fill="#080D14"/>
</g>
<g id="Group_90">
<path id="Vector_90" opacity="0.115" fill-rule="evenodd" clip-rule="evenodd" d="M20.5588 30.2045C20.6809 30.413 20.7428 30.6608 20.7449 30.948C20.4174 32.6039 20.2933 34.2768 20.3728 35.9665C19.4463 36.0623 18.5781 35.9383 17.7681 35.5948C17.7792 35.4939 17.8412 35.432 17.9541 35.4089C18.6501 35.7493 19.3943 35.8731 20.1867 35.7807C20.1397 33.9065 20.2636 32.0478 20.5588 30.2045Z" fill="#F2F5F7"/>
</g>
<g id="Group_91">
<path id="Vector_91" fill-rule="evenodd" clip-rule="evenodd" d="M22.6055 33.9219C22.4068 34.0955 22.1588 34.1576 21.8613 34.1078C21.8613 34.0459 21.8613 33.9838 21.8613 33.9219C22.1093 33.6741 22.3575 33.6741 22.6055 33.9219Z" fill="#5C6A75"/>
</g>
<g id="Group_92">
<path id="Vector_92" fill-rule="evenodd" clip-rule="evenodd" d="M39.9082 31.8773C39.9133 32.1931 40.0373 32.4411 40.2803 32.6208C38.6247 36.0097 36.1438 38.6119 32.8383 40.4275C32.2829 40.581 31.7869 40.8288 31.3498 41.171C30.9777 41.2329 30.6056 41.295 30.2335 41.3569C29.7492 41.3645 29.253 41.3024 28.7451 41.171C30.3917 40.5972 32.004 39.9156 33.5825 39.1264C33.8666 39.14 34.0526 39.016 34.1406 38.7546C35.4984 37.708 36.7388 36.5309 37.8617 35.223C38.1232 35.1351 38.2473 34.9493 38.2338 34.6654C38.7478 33.6987 39.306 32.7693 39.9082 31.8773Z" fill="#1E1F21"/>
</g>
<g id="Group_93">
<path id="Vector_93" opacity="0.741" fill-rule="evenodd" clip-rule="evenodd" d="M27.6286 34.4796C27.2952 34.4547 26.9853 34.5166 26.6984 34.6654C26.6984 34.9753 26.6984 35.285 26.6984 35.5948C26.6364 35.5948 26.5743 35.5948 26.5123 35.5948C26.5443 35.4104 26.4822 35.2866 26.3263 35.2231C26.1999 34.5404 25.8278 34.3545 25.21 34.6654C25.5305 34.4238 25.9337 34.2998 26.4193 34.2937C26.8586 34.2944 27.2616 34.3563 27.6286 34.4796Z" fill="#B3BDC6"/>
</g>
<g id="Group_94">
<path id="Vector_94" fill-rule="evenodd" clip-rule="evenodd" d="M21.8609 33.9219C21.8609 33.9838 21.8609 34.0459 21.8609 34.1077C21.8289 34.2921 21.891 34.4159 22.0469 34.4795C22.5724 34.5704 22.8204 34.8802 22.7911 35.4089C22.4823 35.7338 22.1102 35.8267 21.6748 35.6877C21.905 35.6446 22.091 35.5516 22.233 35.4089C21.9294 35.0693 21.6192 34.7284 21.3027 34.3866C21.4103 34.1232 21.5963 33.9683 21.8609 33.9219Z" fill="#677889"/>
</g>
<g id="Group_95">
<path id="Vector_95" fill-rule="evenodd" clip-rule="evenodd" d="M19.0702 29.4609C19.236 29.5743 19.422 29.6362 19.6284 29.6468C19.9882 29.7602 20.2984 29.9461 20.5586 30.2044C20.2634 32.0477 20.1395 33.9065 20.1865 35.7806C19.3941 35.873 18.6499 35.7492 17.9539 35.4089C17.841 35.4319 17.779 35.4938 17.7679 35.5948C16.6921 36.1792 15.7308 35.9933 14.8841 35.0371C14.7368 34.8057 14.6438 34.558 14.605 34.2937C14.605 33.3024 14.605 32.3109 14.605 31.3197C15.2872 31.3197 15.9694 31.3197 16.6516 31.3197C16.6516 32.0013 16.6516 32.6827 16.6516 33.3643C16.5877 33.7329 16.7117 33.9808 17.0237 34.1078C17.357 34.1327 17.6671 34.0708 17.9539 33.9219C18.0772 33.5552 18.1392 33.1526 18.14 32.7137C17.9973 31.876 17.8733 31.0396 17.7679 30.2044C17.8314 30.0487 17.9555 29.9866 18.14 30.0186C18.3906 29.8938 18.6077 29.8938 18.7911 30.0186C18.8866 29.8277 18.9796 29.6418 19.0702 29.4609Z" fill="#183E61"/>
</g>
<g id="Group_96">
<path id="Vector_96" opacity="0.043" fill-rule="evenodd" clip-rule="evenodd" d="M16.6515 33.3643C16.8699 33.5527 16.9939 33.8005 17.0236 34.1078C16.7117 33.9808 16.5877 33.7328 16.6515 33.3643Z" fill="#EAEFF2"/>
</g>
<g id="Group_97">
<path id="Vector_97" fill-rule="evenodd" clip-rule="evenodd" d="M26.3263 35.223C26.3263 35.347 26.2643 35.4089 26.1402 35.4089C25.7428 35.4159 25.4948 35.5399 25.396 35.7806C25.4401 35.5407 25.3782 35.3548 25.21 35.223C25.21 35.0371 25.21 34.8513 25.21 34.6654C25.8278 34.3544 26.1999 34.5403 26.3263 35.223Z" fill="#526577"/>
</g>
<g id="Group_98">
<path id="Vector_98" opacity="0.824" fill-rule="evenodd" clip-rule="evenodd" d="M23.9077 34.4796C24.0188 34.3608 24.1738 34.2989 24.3728 34.2937C24.6718 34.4004 24.9509 34.5242 25.2101 34.6654C25.2101 34.8513 25.2101 35.0372 25.2101 35.2231C24.9621 35.2231 24.838 35.347 24.838 35.5948C24.59 35.5948 24.3418 35.5948 24.0938 35.5948C24.0938 35.285 24.0938 34.9753 24.0938 34.6654C24.7769 34.5641 24.7148 34.5023 23.9077 34.4796Z" fill="#AAB5C0"/>
</g>
<g id="Group_99">
<path id="Vector_99" opacity="0.816" fill-rule="evenodd" clip-rule="evenodd" d="M27.6285 34.4796C27.7844 34.5432 27.8466 34.667 27.8146 34.8513C27.8146 34.9753 27.8146 35.0991 27.8146 35.2231C27.5171 35.1733 27.269 35.2354 27.0703 35.409C27.2123 35.5517 27.3984 35.6447 27.6285 35.6878C27.3879 35.7789 27.1397 35.8099 26.8843 35.7807C26.7602 35.7807 26.6982 35.7188 26.6982 35.5948C26.6982 35.285 26.6982 34.9753 26.6982 34.6655C26.9851 34.5166 27.2951 34.4547 27.6285 34.4796Z" fill="#5B6D7E"/>
</g>
<g id="Group_100">
<path id="Vector_100" opacity="0.482" fill-rule="evenodd" clip-rule="evenodd" d="M29.3034 34.4796C28.9313 34.4796 28.5591 34.4796 28.187 34.4796C28.1567 34.9177 28.1876 35.3513 28.2801 35.7807C28.3169 35.4309 28.4099 35.1212 28.5591 34.8513C28.5591 35.223 28.5591 35.5948 28.5591 35.9665C28.3731 35.9665 28.187 35.9665 28.001 35.9665C28.0509 35.6693 27.9887 35.4216 27.8149 35.223C27.8149 35.0991 27.8149 34.9753 27.8149 34.8513C27.9831 34.7195 28.0451 34.5336 28.001 34.2937C28.4771 34.2375 28.9113 34.2996 29.3034 34.4796Z" fill="#DCE3E8"/>
</g>
<g id="Group_101">
<path id="Vector_101" opacity="0.737" fill-rule="evenodd" clip-rule="evenodd" d="M38.2335 34.6654C38.247 34.9492 38.1229 35.1351 37.8614 35.223C37.8478 34.9392 37.9719 34.7533 38.2335 34.6654Z" fill="#8F8F8E"/>
</g>
<g id="Group_102">
<path id="Vector_102" fill-rule="evenodd" clip-rule="evenodd" d="M29.3034 34.4795C29.3337 34.9176 29.3028 35.3512 29.2103 35.7806C29.1182 35.4139 29.0872 35.0421 29.1173 34.6654C28.8771 34.6213 28.6911 34.6832 28.5591 34.8512C28.4099 35.1211 28.3169 35.4308 28.2801 35.7806C28.1876 35.3512 28.1567 34.9176 28.187 34.4795C28.5591 34.4795 28.9313 34.4795 29.3034 34.4795Z" fill="#203547"/>
</g>
<g id="Group_103">
<path id="Vector_103" opacity="0.643" fill-rule="evenodd" clip-rule="evenodd" d="M29.3033 34.4795C29.4843 34.9345 29.5463 35.4302 29.4893 35.9665C29.3033 35.9665 29.1172 35.9665 28.9312 35.9665C29.0196 35.4866 28.8955 35.1148 28.5591 34.8512C28.691 34.6832 28.877 34.6213 29.1172 34.6654C29.0871 35.0421 29.1182 35.4139 29.2103 35.7806C29.3027 35.3512 29.3336 34.9176 29.3033 34.4795Z" fill="#BCC4CB"/>
</g>
<g id="Group_104">
<path id="Vector_104" opacity="0.298" fill-rule="evenodd" clip-rule="evenodd" d="M23.7218 34.8513C23.7218 35.0372 23.7218 35.223 23.7218 35.4089C23.5536 35.5407 23.4916 35.7266 23.5357 35.9665C23.0659 35.7078 22.6627 35.7699 22.3264 36.1524C22.0661 36.0173 21.787 35.9243 21.4891 35.8736C21.2502 35.6325 21.2813 35.4156 21.5822 35.223C21.7703 35.3786 21.9874 35.4405 22.2333 35.4089C22.0914 35.5517 21.9053 35.6446 21.6752 35.6877C22.1105 35.8268 22.4826 35.7338 22.7915 35.4089C22.9573 35.0823 22.9883 34.6485 22.8845 34.1078C22.5827 34.2191 22.3037 34.3431 22.0473 34.4795C21.8914 34.416 21.8292 34.2922 21.8612 34.1078C22.1587 34.1576 22.4067 34.0955 22.6054 33.9219C22.8877 33.9199 23.1048 33.7961 23.2566 33.5502C23.4507 33.9838 23.6057 34.4175 23.7218 34.8513Z" fill="#C4CBD2"/>
</g>
<g id="Group_105">
<path id="Vector_105" opacity="0.8" fill-rule="evenodd" clip-rule="evenodd" d="M25.21 35.223C25.3782 35.3548 25.4401 35.5407 25.396 35.7806C25.3341 35.7806 25.2719 35.7806 25.21 35.7806C25.21 35.6567 25.148 35.5948 25.0239 35.5948C25.0859 35.4708 25.148 35.347 25.21 35.223Z" fill="#A6B4C0"/>
</g>
<g id="Group_106">
<path id="Vector_106" fill-rule="evenodd" clip-rule="evenodd" d="M23.9076 34.4795C24.7147 34.5022 24.7768 34.5641 24.0936 34.6654C24.0936 34.9752 24.0936 35.2849 24.0936 35.5947C24.3416 35.5947 24.5898 35.5947 24.8379 35.5947C24.8998 35.5947 24.9619 35.5947 25.0239 35.5947C25.0239 35.6566 25.0239 35.7187 25.0239 35.7806C24.8998 35.7806 24.8379 35.8425 24.8379 35.9665C24.5217 35.9962 24.2116 35.9654 23.9076 35.8735C23.7677 35.7488 23.7055 35.594 23.7215 35.4089C23.7215 35.223 23.7215 35.0371 23.7215 34.8512C23.6895 34.6669 23.7517 34.5431 23.9076 34.4795Z" fill="#5B6977"/>
</g>
<g id="Group_107">
<path id="Vector_107" opacity="0.671" fill-rule="evenodd" clip-rule="evenodd" d="M26.1401 35.4089C26.2037 35.5647 26.3276 35.6268 26.5122 35.5948C26.5122 35.7188 26.5122 35.8426 26.5122 35.9666C26.3912 35.9101 26.2671 35.8482 26.1401 35.7807C26.0962 35.9195 26.034 36.0744 25.954 36.2454C25.7797 36.374 25.6558 36.343 25.5819 36.1524C25.426 36.0889 25.3639 35.9651 25.3959 35.7807C25.4946 35.54 25.7427 35.416 26.1401 35.4089Z" fill="#C5CFD8"/>
</g>
<g id="Group_108">
<path id="Vector_108" opacity="0.153" fill-rule="evenodd" clip-rule="evenodd" d="M27.0703 35.4089C27.3183 35.4089 27.5665 35.4089 27.8145 35.4089C27.8114 36.2482 27.5014 36.3721 26.8843 35.7807C27.1397 35.8099 27.3879 35.7788 27.6285 35.6877C27.3983 35.6446 27.2123 35.5517 27.0703 35.4089Z" fill="#EFF1F3"/>
</g>
<g id="Group_109">
<path id="Vector_109" fill-rule="evenodd" clip-rule="evenodd" d="M10.3257 33.5502C11.9469 36.0992 14.0555 38.1439 16.6515 39.684C16.3018 39.6336 16.0537 39.7576 15.9073 40.0557C13.3734 38.5777 11.3269 36.595 9.76758 34.1078C9.95363 34.1078 10.1397 34.1078 10.3257 34.1078C10.3257 33.9219 10.3257 33.736 10.3257 33.5502Z" fill="#2A2B2D"/>
</g>
<g id="Group_110">
<path id="Vector_110" opacity="0.678" fill-rule="evenodd" clip-rule="evenodd" d="M25.0239 35.7806C25.0859 35.7806 25.148 35.7806 25.21 35.7806C25.21 35.9665 25.21 36.1524 25.21 36.3383C25.0239 36.2764 24.8998 36.1524 24.8379 35.9665C24.962 35.9665 25.0239 35.9046 25.0239 35.7806Z" fill="#C8CFD6"/>
</g>
<g id="Group_111">
<path id="Vector_111" fill-rule="evenodd" clip-rule="evenodd" d="M9.20937 36.1524C10.4216 36.0626 11.0418 36.6202 11.0699 37.8253C10.7716 37.8602 10.5235 37.7673 10.3257 37.5465C10.6729 36.8697 10.4869 36.5598 9.76753 36.6171C9.76336 37.442 9.70133 38.2784 9.58147 39.1264C9.18033 39.5795 8.74621 39.6106 8.27911 39.2193C7.6067 38.8087 7.35862 38.2511 7.5349 37.5465C7.80351 37.4013 8.05157 37.4323 8.27911 37.6394C7.70133 38.4201 7.88738 38.8228 8.83727 38.8476C9.03776 38.2715 9.03776 37.6829 8.83727 37.0818C8.82545 36.7074 8.94949 36.3976 9.20937 36.1524Z" fill="#090E13"/>
</g>
<g id="Group_112">
<path id="Vector_112" opacity="0.875" fill-rule="evenodd" clip-rule="evenodd" d="M25.21 35.7806C25.2719 35.7806 25.3341 35.7806 25.396 35.7806C25.364 35.965 25.4262 36.0888 25.5821 36.1524C25.6559 36.3429 25.7798 36.3739 25.9542 36.2453C26.0342 36.0743 26.0963 35.9195 26.1402 35.7806C26.2673 35.8481 26.3914 35.91 26.5123 35.9665C26.6671 36.1206 26.6052 36.2754 26.3263 36.4312C25.9147 36.5779 25.5426 36.5468 25.21 36.3383C25.21 36.1524 25.21 35.9665 25.21 35.7806Z" fill="#667380"/>
</g>
<g id="Group_113">
<path id="Vector_113" fill-rule="evenodd" clip-rule="evenodd" d="M43.2572 35.7807C43.1644 37.4681 42.3582 37.9638 40.8385 37.2677C40.3576 36.6238 39.7375 36.345 38.978 36.4313C39.2964 35.95 39.6376 35.4853 40.0013 35.0372C40.0521 35.3348 40.1451 35.6136 40.2804 35.8736C40.9256 36.2398 41.5457 36.6424 42.1409 37.0818C42.8222 36.8024 43.0083 36.3378 42.6991 35.6878C42.1089 35.3621 41.5508 34.9904 41.0246 34.5725C40.7546 34.6214 40.5066 34.5904 40.2804 34.4796C40.4895 34.2168 40.6756 33.9379 40.8385 33.6432C40.9626 33.5192 41.0866 33.5192 41.2106 33.6432C41.0337 33.7766 41.0028 33.9314 41.1176 34.1078C41.8269 34.6915 42.54 35.2491 43.2572 35.7807Z" fill="#0D131A"/>
</g>
<g id="Group_114">
<path id="Vector_114" fill-rule="evenodd" clip-rule="evenodd" d="M39.722 37.8252C40.44 38.5303 40.595 39.3357 40.1871 40.2416C39.6909 40.7373 39.1949 41.2329 38.6987 41.7286C38.6669 41.0938 38.3257 40.5981 37.6754 40.2416C37.4265 39.471 36.9303 39.1303 36.187 39.2193C36.7612 38.521 37.4432 37.9634 38.2336 37.5464C38.7586 37.4669 39.2546 37.5598 39.722 37.8252Z" fill="#0B0F14"/>
</g>
<g id="Group_115">
<path id="Vector_115" fill-rule="evenodd" clip-rule="evenodd" d="M47.5363 35.0372C45.5043 39.9012 42.2173 43.6805 37.6756 46.3755C37.6081 45.9274 37.7941 45.6486 38.2338 45.5391C38.1913 45.4649 38.1292 45.4341 38.0477 45.4462C40.0798 43.8813 41.9714 42.1465 43.7223 40.2417C44.766 38.837 45.6652 37.3501 46.42 35.7807C46.5877 35.6339 46.7118 35.448 46.7921 35.2231C47.0636 35.2356 47.3116 35.1737 47.5363 35.0372Z" fill="#303133"/>
</g>
<g id="Group_116">
<path id="Vector_116" fill-rule="evenodd" clip-rule="evenodd" d="M37.8617 38.0111C39.3052 38.3003 39.8634 39.1368 39.5361 40.5204C38.7339 40.1553 38.0827 39.5667 37.5826 38.7546C37.5268 38.4635 37.6198 38.2158 37.8617 38.0111Z" fill="#7D93A4"/>
</g>
<g id="Group_117">
<path id="Vector_117" opacity="0.898" fill-rule="evenodd" clip-rule="evenodd" d="M34.1407 38.7547C34.0527 39.016 33.8666 39.14 33.5825 39.1264C33.6705 38.8651 33.8566 38.7411 34.1407 38.7547Z" fill="#838383"/>
</g>
<g id="Group_118">
<path id="Vector_118" fill-rule="evenodd" clip-rule="evenodd" d="M11.8141 38.5687C13.6296 38.7273 14.2188 39.6566 13.5816 41.3568C12.6456 42.5048 11.6533 42.5667 10.6048 41.5427C10.2327 40.9232 10.2327 40.3035 10.6048 39.684C10.9885 39.2687 11.3916 38.897 11.8141 38.5687Z" fill="#0A0F14"/>
</g>
<g id="Group_119">
<path id="Vector_119" fill-rule="evenodd" clip-rule="evenodd" d="M12.1866 39.1264C13.1158 39.0946 13.4568 39.5282 13.2098 40.4275C12.8242 41.3163 12.173 41.7191 11.2563 41.6357C10.9379 41.4251 10.8449 41.1463 10.9772 40.7992C11.2769 40.1602 11.68 39.6026 12.1866 39.1264Z" fill="#7F97A7"/>
</g>
<g id="Group_120">
<path id="Vector_120" fill-rule="evenodd" clip-rule="evenodd" d="M16.6514 39.684C20.5061 41.5515 24.5372 42.0472 28.7448 41.171C29.2527 41.3024 29.7489 41.3645 30.2332 41.3569C29.1895 41.8329 28.0732 42.1117 26.8843 42.1933C22.9653 42.7453 19.3064 42.0329 15.9072 40.0558C16.0536 39.7576 16.3017 39.6336 16.6514 39.684Z" fill="#262627"/>
</g>
<g id="Group_121">
<path id="Vector_121" fill-rule="evenodd" clip-rule="evenodd" d="M36.9315 43.0297C36.3156 43.3786 35.6955 43.6574 35.071 43.8661C35.3513 43.7105 35.4444 43.4936 35.35 43.2156C34.9318 42.6899 34.5597 42.1323 34.2337 41.5427C33.9716 41.3046 33.6925 41.1187 33.3965 40.9851C34.043 40.6306 34.6633 40.2278 35.257 39.7769C35.8462 39.6221 36.0632 39.8388 35.9082 40.4275C35.7525 40.1473 35.5353 40.0544 35.257 40.1486C34.5517 40.6438 34.5828 41.1085 35.35 41.5427C36.6827 41.0533 36.7136 41.1771 35.4431 41.9144C36.1076 43.3408 36.6969 43.2788 37.2105 41.7286C37.8152 42.281 37.7222 42.7146 36.9315 43.0297Z" fill="#090F15"/>
</g>
<g id="Group_122">
<path id="Vector_122" fill-rule="evenodd" clip-rule="evenodd" d="M14.9772 40.4275C15.4933 40.6548 15.9894 40.9336 16.4656 41.2639C16.2301 41.3214 16.013 41.4143 15.8144 41.5427C15.4733 42.2243 15.1322 42.9057 14.7911 43.5873C15.1251 44.3507 15.5902 44.4745 16.1865 43.9591C16.5276 43.2775 16.8687 42.5961 17.2098 41.9145C17.1709 41.8056 17.1088 41.7126 17.0237 41.6357C17.4339 41.607 17.806 41.7308 18.1401 42.0074C17.9045 42.0649 17.6875 42.1578 17.4889 42.2862C17.1788 42.9057 16.8687 43.5254 16.5586 44.145C15.7916 44.8565 15.0474 44.7946 14.326 43.9591C14.2162 42.8723 14.4952 41.8808 15.1632 40.9851C15.0465 40.8147 14.9845 40.6288 14.9772 40.4275Z" fill="#10161C"/>
</g>
<g id="Group_123">
<path id="Vector_123" fill-rule="evenodd" clip-rule="evenodd" d="M18.5123 42.1003C19.4048 42.2836 20.242 42.5935 21.024 43.0297C21.1481 43.3396 21.1481 43.6492 21.024 43.9591C20.2418 44.6355 20.2108 45.379 20.931 46.1896C20.495 46.4173 20.1538 46.2935 19.9077 45.8178C19.7704 45.2658 19.5534 44.7702 19.2565 44.3308C18.8143 44.8451 18.8143 45.3409 19.2565 45.8178C18.6872 45.9091 18.129 45.7851 17.582 45.4461C17.7355 45.2814 17.9216 45.2195 18.1402 45.2602C18.3253 44.5189 18.5113 43.7754 18.6983 43.0297C18.6559 42.7124 18.5938 42.4026 18.5123 42.1003Z" fill="#0A1015"/>
</g>
<g id="Group_124">
<path id="Vector_124" fill-rule="evenodd" clip-rule="evenodd" d="M19.4424 42.8439C20.4186 42.8699 20.6047 43.2725 20.0006 44.0521C19.76 44.1431 19.5118 44.1742 19.2563 44.145C19.3481 43.7164 19.41 43.2827 19.4424 42.8439Z" fill="#7D8D96"/>
</g>
<g id="Group_125">
<path id="Vector_125" opacity="0.816" fill-rule="evenodd" clip-rule="evenodd" d="M7.90723 43.5873C8.19131 43.5737 8.37736 43.6977 8.46538 43.9591C8.1813 43.9726 7.99525 43.8486 7.90723 43.5873Z" fill="#A1A1A2"/>
</g>
<g id="Group_126">
<path id="Vector_126" fill-rule="evenodd" clip-rule="evenodd" d="M23.1634 43.0298C23.7415 43.0021 24.2997 43.095 24.8379 43.3086C24.9936 43.4965 25.0556 43.7134 25.024 43.9592C24.5144 43.9207 24.0801 43.7348 23.7216 43.4015C23.4371 43.4069 23.22 43.5309 23.0704 43.7733C22.9463 44.5168 22.9463 45.2603 23.0704 46.0038C23.6742 46.1553 24.2634 46.2172 24.8379 46.1896C23.9622 46.9592 23.1249 46.8973 22.3262 46.0038C21.7669 44.753 22.046 43.7618 23.1634 43.0298Z" fill="#0D1318"/>
</g>
<g id="Group_127">
<path id="Vector_127" fill-rule="evenodd" clip-rule="evenodd" d="M2.88379 37.2677C3.46909 37.5013 3.84119 37.9352 4.0001 38.5688C4.11298 38.5458 4.17499 38.4839 4.18615 38.3829C7.46563 43.1432 11.8688 46.4268 17.3958 48.2342C17.2824 48.3999 17.2204 48.5857 17.2098 48.7919C15.4638 48.3973 13.8513 47.7157 12.3724 46.7473C12.2844 46.4859 12.0984 46.3619 11.8143 46.3755C11.3766 46.2194 11.0045 45.9714 10.698 45.632C10.6099 45.3707 10.4239 45.2467 10.1398 45.2603C9.47905 44.9608 8.92089 44.5272 8.46535 43.9591C8.37732 43.6978 8.19127 43.5738 7.90719 43.5874C5.80916 41.8028 4.13469 39.6963 2.88379 37.2677Z" fill="#25282B"/>
</g>
<g id="Group_128">
<path id="Vector_128" fill-rule="evenodd" clip-rule="evenodd" d="M31.1635 42.1004C31.3919 42.3811 31.3919 42.6599 31.1635 42.9368C30.8742 42.8578 30.5951 42.703 30.3262 42.4722C29.8607 42.6582 29.7677 42.9679 30.0472 43.4015C30.7774 43.4647 31.4286 43.7127 32.0007 44.145C32.1834 44.7538 32.0284 45.2493 31.5356 45.632C31.0014 45.8512 30.4743 45.8512 29.9541 45.632C29.8088 45.3636 29.8399 45.1158 30.0472 44.8885C30.2029 45.2612 30.482 45.4471 30.8844 45.4461C31.6165 45.2954 31.7095 44.9547 31.1635 44.4238C30.6446 44.379 30.1484 44.2551 29.6751 44.0521C29.4064 43.8428 29.2825 43.564 29.303 43.2156C29.5766 42.3307 30.1968 41.959 31.1635 42.1004Z" fill="#070D15"/>
</g>
<g id="Group_129">
<path id="Vector_129" opacity="0.796" fill-rule="evenodd" clip-rule="evenodd" d="M10.1396 45.2603C10.4237 45.2467 10.6098 45.3707 10.6978 45.632C10.4137 45.6456 10.2277 45.5216 10.1396 45.2603Z" fill="#77797A"/>
</g>
<g id="Group_130">
<path id="Vector_130" fill-rule="evenodd" clip-rule="evenodd" d="M28.7449 46.3754C28.3728 46.3754 28.0007 46.3754 27.6286 46.3754C27.0717 46.4935 26.5136 46.5243 25.9541 46.4684C26.1781 46.2169 26.3022 45.9072 26.3262 45.539C26.2952 45.2602 26.2643 44.9814 26.2332 44.7026C26.2674 44.0751 26.0503 43.5793 25.582 43.2156C26.4937 42.9546 27.4239 42.8307 28.3728 42.8438C28.4258 43.1762 28.3639 43.486 28.1868 43.7732C28.0219 43.6199 27.96 43.434 28.0007 43.2156C27.6286 43.2156 27.2565 43.2156 26.8844 43.2156C26.8844 43.5873 26.8844 43.9591 26.8844 44.3308C27.3354 44.2736 27.7694 44.3357 28.1868 44.5167C27.834 44.6963 27.4619 44.7582 27.0704 44.7026C27.0704 45.1983 27.0704 45.6938 27.0704 46.1896C27.4476 46.2197 27.8197 46.1886 28.1868 46.0966C28.5672 45.2701 28.7533 45.363 28.7449 46.3754Z" fill="#070D12"/>
</g>
<g id="Group_131">
<path id="Vector_131" fill-rule="evenodd" clip-rule="evenodd" d="M46.4199 35.7807C45.6651 37.35 44.7659 38.837 43.7222 40.2417C41.9712 42.1465 40.0796 43.8813 38.0476 45.4461C34.9638 47.3612 31.6148 48.5385 28.0008 48.9777C27.0943 48.9422 26.1951 49.0041 25.303 49.1636C23.4853 48.8603 21.6557 48.6433 19.8145 48.513C19.6904 48.3891 19.5665 48.2653 19.4424 48.1413C19.711 47.9435 20.0212 47.8506 20.3726 47.8625C21.2179 47.9621 21.9932 48.024 22.6983 48.0484C22.9204 47.8755 23.1684 47.7515 23.4425 47.6766C24.1545 48.0411 24.8678 48.0721 25.5821 47.7695C25.5201 47.7077 25.458 47.6456 25.396 47.5837C24.9358 47.6398 24.5015 47.6707 24.0937 47.6766C23.9433 47.6194 23.8193 47.5264 23.7216 47.3978C24.2048 46.9826 24.7318 46.8896 25.303 47.119C26.0952 46.8794 26.8705 46.6314 27.6287 46.3755C28.0008 46.3755 28.3729 46.3755 28.745 46.3755C29.4873 46.2827 30.2315 46.1898 30.9776 46.0967C31.2459 46.0266 31.4319 45.8718 31.5358 45.632C32.0286 45.2493 32.1836 44.7537 32.0009 44.145C31.4288 43.7127 30.7776 43.4647 30.0473 43.4015C29.7679 42.9679 29.8609 42.6582 30.3264 42.4721C30.5953 42.703 30.8743 42.8578 31.1637 42.9368C31.3921 42.6599 31.3921 42.3811 31.1637 42.1004C31.3406 41.8366 31.4025 41.527 31.3497 41.171C31.7867 40.8288 32.2828 40.5811 32.8381 40.4275C33.0242 40.4275 33.2102 40.4275 33.3963 40.4275C33.3963 40.6134 33.3963 40.7993 33.3963 40.9852C33.6923 41.1188 33.9714 41.3047 34.2335 41.5428C34.5595 42.1324 34.9316 42.69 35.3498 43.2156C35.4441 43.4937 35.3511 43.7106 35.0707 43.8662C35.6953 43.6575 36.3154 43.3787 36.9313 43.0298C37.1819 43.1545 37.399 43.1545 37.5824 43.0298C38.1285 42.2794 38.0664 41.6597 37.3964 41.171C37.1605 41.1926 36.9123 41.2545 36.6522 41.3569C36.6172 41.0668 36.7722 40.9428 37.1173 40.9852C37.0715 40.4331 36.7616 40.1853 36.1871 40.2417C36.4963 39.3056 36.7443 39.3056 36.9313 40.2417C37.1793 40.2417 37.4275 40.2417 37.6755 40.2417C38.3257 40.5982 38.6669 41.0939 38.6988 41.7287C39.195 41.2329 39.691 40.7374 40.1872 40.2417C40.595 39.3357 40.44 38.5303 39.722 37.8253C40.0469 37.6919 40.1708 37.506 40.0941 37.2677C40.3222 37.4281 40.5704 37.4281 40.8383 37.2677C42.358 37.9638 43.1642 37.4681 43.257 35.7807C43.2777 35.666 43.3396 35.5731 43.4431 35.5019C43.0801 35.1796 42.894 34.7768 42.8849 34.2937C43.7551 34.2314 44.6234 34.1385 45.4896 34.0149C45.8307 33.5502 46.1719 33.0855 46.5129 32.6208C46.5773 32.9402 46.6703 33.25 46.792 33.5502C46.3751 33.913 46.003 34.3156 45.6757 34.7584C45.9163 34.8495 46.1645 34.8805 46.4199 34.8513C46.4199 35.1612 46.4199 35.4708 46.4199 35.7807Z" fill="#7F99AB"/>
</g>
<g id="Group_132">
<path id="Vector_132" opacity="0.478" fill-rule="evenodd" clip-rule="evenodd" d="M11.8145 46.3755C12.0985 46.3619 12.2846 46.4859 12.3726 46.7473C12.0885 46.7608 11.9025 46.6369 11.8145 46.3755Z" fill="#B5B6B6"/>
</g>
<g id="Group_133">
<path id="Vector_133" opacity="0.984" fill-rule="evenodd" clip-rule="evenodd" d="M17.21 48.7919C17.6562 48.7471 18.0283 48.8711 18.3263 49.1636C17.901 49.146 17.5289 49.022 17.21 48.7919Z" fill="#828385"/>
</g>
<g id="Group_134">
<path id="Vector_134" fill-rule="evenodd" clip-rule="evenodd" d="M38.0478 45.4462C38.1293 45.4341 38.1914 45.4649 38.2338 45.5391C37.7942 45.6486 37.6081 45.9274 37.6757 46.3755C34.6012 48.1839 31.3144 49.361 27.8149 49.9071C25.7683 49.9071 23.7218 49.9071 21.6752 49.9071C20.5753 49.6869 19.459 49.4391 18.3263 49.1636C18.0283 48.8711 17.6562 48.7471 17.21 48.7919C17.2205 48.5857 17.2826 48.3999 17.396 48.2343C20.8854 49.3917 24.4204 49.6396 28.001 48.9778C31.615 48.5385 34.964 47.3612 38.0478 45.4462Z" fill="#27282A"/>
</g>
</g>
<defs>
<clipPath id="clip0_372_9622">
<rect width="49.4898" height="50" fill="white"/>
</clipPath>
</defs>
</svg>
