<?xml version="1.0" encoding="UTF-8"?>
<!DOCTYPE svg PUBLIC "-//W3C//DTD SVG 1.1//EN" "http://www.w3.org/Graphics/SVG/1.1/DTD/svg11.dtd">
<svg xmlns="http://www.w3.org/2000/svg" version="1.1" width="500px" height="500px" style="shape-rendering:geometricPrecision; text-rendering:geometricPrecision; image-rendering:optimizeQuality; fill-rule:evenodd; clip-rule:evenodd" xmlns:xlink="http://www.w3.org/1999/xlink">
<g><path style="opacity:1" fill="#fefefe" d="M -0.5,-0.5 C 166.167,-0.5 332.833,-0.5 499.5,-0.5C 499.5,166.167 499.5,332.833 499.5,499.5C 332.833,499.5 166.167,499.5 -0.5,499.5C -0.5,332.833 -0.5,166.167 -0.5,-0.5 Z"/></g>
<g><path style="opacity:1" fill="#121415" d="M 234.5,56.5 C 291.645,53.3201 335.478,75.6534 366,123.5C 386.338,161.579 389.004,200.912 374,241.5C 349.23,295.399 307.064,323.066 247.5,324.5C 199.171,322.591 161.671,301.591 135,261.5C 112.536,221.604 109.536,180.271 126,137.5C 148.09,91.5684 184.257,64.5684 234.5,56.5 Z"/></g>
<g><path style="opacity:1" fill="#7f9aac" d="M 243.5,59.5 C 296.602,59.1227 336.768,81.456 364,126.5C 385.98,169.449 385.98,212.449 364,255.5C 333.374,304.062 289.208,325.895 231.5,321C 177.404,311.227 141.57,280.394 124,228.5C 108.721,163.974 128.554,113.474 183.5,77C 202.331,66.5483 222.331,60.715 243.5,59.5 Z"/></g>
<g><path style="opacity:1" fill="#0e0e0e" d="M 234.5,97.5 C 282.554,93.5956 316.721,113.262 337,156.5C 350.15,196.396 341.984,231.229 312.5,261C 278.747,287.703 242.413,291.703 203.5,273C 165.313,248.438 150.147,213.605 158,168.5C 169.636,129.691 195.136,106.024 234.5,97.5 Z"/></g>
<g><path style="opacity:1" fill="#fbfcfc" d="M 239.5,100.5 C 282.859,99.086 314.025,117.753 333,156.5C 346.228,196.422 337.728,230.922 307.5,260C 283.343,278.454 256.343,284.454 226.5,278C 188.212,266.042 166.045,240.209 160,200.5C 158.312,152.852 179.812,120.685 224.5,104C 229.679,103.034 234.679,101.867 239.5,100.5 Z"/></g>
<g><path style="opacity:1" fill="#113f65" d="M 241.5,124.5 C 243.199,124.34 244.866,124.506 246.5,125C 266.719,133.61 287.053,141.943 307.5,150C 304.285,151.774 300.952,153.274 297.5,154.5C 295.646,162.967 296.479,170.967 300,178.5C 300.391,183.854 300.891,189.188 301.5,194.5C 296.5,194.5 291.5,194.5 286.5,194.5C 286.969,188.838 287.469,183.171 288,177.5C 288.615,175.884 289.615,174.551 291,173.5C 291.499,168.177 291.666,162.844 291.5,157.5C 288.833,158.167 286.167,158.833 283.5,159.5C 283.5,176.167 283.5,192.833 283.5,209.5C 270.158,213.597 256.492,215.93 242.5,216.5C 229.927,215.685 217.594,213.519 205.5,210C 204.508,193.244 204.175,176.411 204.5,159.5C 196.472,157.213 188.805,154.046 181.5,150C 201.642,141.573 221.642,133.073 241.5,124.5 Z"/></g>
<g><path style="opacity:1" fill="#fbfcfd" d="M 242.5,129.5 C 259.694,135.761 276.694,142.594 293.5,150C 277.979,156.925 262.313,163.591 246.5,170C 244.833,170.667 243.167,170.667 241.5,170C 225.687,163.591 210.021,156.925 194.5,150C 210.705,143.391 226.705,136.557 242.5,129.5 Z"/></g>
<g><path style="opacity:1" fill="#fcfcfd" d="M 210.5,193.5 C 210.173,183.319 210.506,173.319 211.5,163.5C 222.429,167.533 233.262,171.867 244,176.5C 255.109,171.695 266.276,167.029 277.5,162.5C 278.666,172.483 278.832,182.483 278,192.5C 255.627,200.017 233.127,200.35 210.5,193.5 Z"/></g>
<g><path style="opacity:1" fill="#eff2f4" d="M 292.5,178.5 C 293.586,178.62 294.253,179.287 294.5,180.5C 295.302,183.449 295.636,186.449 295.5,189.5C 294.5,189.5 293.5,189.5 292.5,189.5C 292.5,185.833 292.5,182.167 292.5,178.5 Z"/></g>
<g><path style="opacity:1" fill="#9aafbf" d="M 211.5,163.5 C 210.506,173.319 210.173,183.319 210.5,193.5C 209.177,183.326 209.177,172.993 210.5,162.5C 211.107,162.624 211.44,162.957 211.5,163.5 Z"/></g>
<g><path style="opacity:1" fill="#f3f5f7" d="M 209.5,198.5 C 221.067,201.709 232.9,203.375 245,203.5C 256.317,202.803 267.483,201.136 278.5,198.5C 278.5,200.833 278.5,203.167 278.5,205.5C 263.488,210.002 248.155,211.835 232.5,211C 225.112,209.547 217.779,207.88 210.5,206C 209.565,203.619 209.232,201.119 209.5,198.5 Z"/></g>
<g><path style="opacity:1" fill="#0c3b62" d="M 218.5,215.5 C 225.776,216.078 228.776,219.745 227.5,226.5C 226.914,226.291 226.414,225.957 226,225.5C 225.5,233.493 225.334,241.493 225.5,249.5C 221.833,249.5 218.167,249.5 214.5,249.5C 214.649,248.448 214.483,247.448 214,246.5C 208.476,250.537 203.143,250.204 198,245.5C 197.333,244.167 196.667,242.833 196,241.5C 195.501,235.843 195.334,230.176 195.5,224.5C 199.167,224.5 202.833,224.5 206.5,224.5C 206.334,229.511 206.501,234.511 207,239.5C 213.674,241.999 216.174,239.666 214.5,232.5C 213.755,228.133 213.255,223.8 213,219.5C 214.812,218.023 216.645,216.69 218.5,215.5 Z"/></g>
<g><path style="opacity:1" fill="#566f8c" d="M 252.5,227.5 C 253.748,228.334 254.415,229.667 254.5,231.5C 254.167,232.833 253.833,234.167 253.5,235.5C 252.52,232.914 252.187,230.247 252.5,227.5 Z"/></g>
<g><path style="opacity:1" fill="#2a4b6f" d="M 264.5,227.5 C 267.95,226.756 269.616,228.09 269.5,231.5C 263.062,231.587 263.062,232.42 269.5,234C 263.013,235.158 261.347,232.991 264.5,227.5 Z"/></g>
<g><path style="opacity:1" fill="#c4cfd8" d="M 265.5,228.5 C 266.376,228.369 267.043,228.702 267.5,229.5C 265.192,230.873 264.525,230.54 265.5,228.5 Z"/></g>
<g><path style="opacity:1" fill="#26476c" d="M 271.5,227.5 C 272.873,227.343 274.207,227.51 275.5,228C 274.036,229.864 273.036,232.031 272.5,234.5C 271.526,232.257 271.192,229.924 271.5,227.5 Z"/></g>
<g><path style="opacity:1" fill="#758ba2" d="M 283.5,224.5 C 284.787,225.871 285.453,227.705 285.5,230C 285.167,231.833 284.833,233.667 284.5,235.5C 283.511,231.893 283.177,228.226 283.5,224.5 Z"/></g>
<g><path style="opacity:1" fill="#25486c" d="M 243.5,227.5 C 249.885,226.214 251.885,228.547 249.5,234.5C 248.548,232.955 248.215,231.288 248.5,229.5C 247.5,229.5 246.5,229.5 245.5,229.5C 245.785,231.288 245.452,232.955 244.5,234.5C 243.526,232.257 243.192,229.924 243.5,227.5 Z"/></g>
<g><path style="opacity:1" fill="#25496d" d="M 232.5,224.5 C 234.22,226.658 235.053,229.325 235,232.5C 236.333,233.833 237.667,233.833 239,232.5C 239.182,229.774 239.682,227.107 240.5,224.5C 241.787,227.709 241.787,230.875 240.5,234C 238.098,234.814 235.765,234.647 233.5,233.5C 232.593,230.579 232.26,227.579 232.5,224.5 Z"/></g>
<g><path style="opacity:1" fill="#1d4569" d="M 287.5,225.5 C 288.931,226.082 290.264,226.915 291.5,228C 288.833,230 288.833,232 291.5,234C 290.207,234.49 288.873,234.657 287.5,234.5C 287.108,231.324 287.108,228.324 287.5,225.5 Z"/></g>
<g><path style="opacity:1" fill="#24496d" d="M 293.5,228.5 C 294.919,227.549 296.585,227.216 298.5,227.5C 298.5,229.833 298.5,232.167 298.5,234.5C 296.5,234.5 294.5,234.5 292.5,234.5C 292.325,231.671 293.658,230.004 296.5,229.5C 295.675,228.614 294.675,228.281 293.5,228.5 Z"/></g>
<g><path style="opacity:1" fill="#d5dde3" d="M 294.5,231.5 C 296.337,231.639 296.67,232.306 295.5,233.5C 294.702,233.043 294.369,232.376 294.5,231.5 Z"/></g>
<g><path style="opacity:1" fill="#24486c" d="M 255.5,227.5 C 257.093,228.348 258.26,229.681 259,231.5C 259.026,228.895 260.193,227.729 262.5,228C 259.606,236.775 257.272,236.609 255.5,227.5 Z"/></g>
<g><path style="opacity:1" fill="#1f4267" d="M 276.5,227.5 C 277.873,227.343 279.207,227.51 280.5,228C 278.008,229.249 278.175,230.416 281,231.5C 281.483,232.448 281.649,233.448 281.5,234.5C 279.801,234.66 278.134,234.494 276.5,234C 279.742,233.717 280.076,232.883 277.5,231.5C 276.571,230.311 276.238,228.978 276.5,227.5 Z"/></g>
<g><path style="opacity:1" fill="#1e4166" d="M 301.5,225.5 C 302.931,226.082 304.264,226.915 305.5,228C 302.833,230 302.833,232 305.5,234C 304.207,234.49 302.873,234.657 301.5,234.5C 301.108,231.324 301.108,228.324 301.5,225.5 Z"/></g>
<g><path style="opacity:1" fill="#20476b" d="M 240.5,238.5 C 242.337,238.639 242.67,239.306 241.5,240.5C 240.702,240.043 240.369,239.376 240.5,238.5 Z"/></g>
<g><path style="opacity:1" fill="#2d5173" d="M 253.5,241.5 C 255.527,241.338 257.527,241.505 259.5,242C 259.059,244.941 257.393,246.774 254.5,247.5C 255.991,248.244 257.491,248.91 259,249.5C 259.617,250.449 259.451,251.282 258.5,252C 256.5,252.667 254.5,252.667 252.5,252C 252.043,251.586 251.709,251.086 251.5,250.5C 252.169,247.47 252.835,244.47 253.5,241.5 Z"/></g>
<g><path style="opacity:1" fill="#3d5a7b" d="M 267.5,241.5 C 269.611,241.772 271.777,242.105 274,242.5C 274.814,244.902 274.647,247.235 273.5,249.5C 272.534,247.604 272.201,245.604 272.5,243.5C 271.5,243.5 270.5,243.5 269.5,243.5C 269.799,245.604 269.466,247.604 268.5,249.5C 267.52,246.914 267.187,244.247 267.5,241.5 Z"/></g>
<g><path style="opacity:1" fill="#466684" d="M 240.5,241.5 C 241.748,242.334 242.415,243.667 242.5,245.5C 242.167,246.833 241.833,248.167 241.5,249.5C 240.52,246.914 240.187,244.247 240.5,241.5 Z"/></g>
<g><path style="opacity:1" fill="#294d70" d="M 246.5,242.5 C 249.33,240.965 250.663,241.965 250.5,245.5C 245.306,245.942 245.306,246.942 250.5,248.5C 247.218,250.174 245.218,249.174 244.5,245.5C 244.453,243.962 245.12,242.962 246.5,242.5 Z"/></g>
<g><path style="opacity:1" fill="#bbc8d3" d="M 246.5,242.5 C 248.983,242.73 249.483,243.397 248,244.5C 246.97,244.164 246.47,243.497 246.5,242.5 Z"/></g>
<g><path style="opacity:1" fill="#f6f8f9" d="M 254.5,243.5 C 256.337,243.639 256.67,244.306 255.5,245.5C 254.702,245.043 254.369,244.376 254.5,243.5 Z"/></g>
<g><path style="opacity:1" fill="#2c4f71" d="M 261.5,241.5 C 267.888,243.264 267.888,244.931 261.5,246.5C 262.833,247.167 264.167,247.833 265.5,248.5C 259.403,249.214 258.069,246.881 261.5,241.5 Z"/></g>
<g><path style="opacity:1" fill="#d1dae0" d="M 262.5,242.5 C 265.137,244.154 264.803,244.654 261.5,244C 262.056,243.617 262.389,243.117 262.5,242.5 Z"/></g>
<g><path style="opacity:1" fill="#2a4f71" d="M 234.5,238.5 C 239.694,238.942 239.694,239.942 234.5,241.5C 236.833,242.5 238.5,244.167 239.5,246.5C 237.704,249.7 235.371,250.2 232.5,248C 233.938,247.781 235.271,247.281 236.5,246.5C 235.167,244.833 233.833,243.167 232.5,241.5C 233.193,240.482 233.859,239.482 234.5,238.5 Z"/></g>
<g><path style="opacity:1" fill="#c0ccd6" d="M 253.5,249.5 C 254.978,249.238 256.311,249.571 257.5,250.5C 256.833,250.833 256.167,251.167 255.5,251.5C 254.287,251.253 253.62,250.586 253.5,249.5 Z"/></g>
<g><path style="opacity:1" fill="#0b3c62" d="M 63.5,340.5 C 78.4564,339.624 84.9564,346.624 83,361.5C 81.9378,367.562 78.4378,371.395 72.5,373C 57.1395,374.295 50.6395,367.129 53,351.5C 54.711,345.959 58.211,342.292 63.5,340.5 Z"/></g>
<g><path style="opacity:1" fill="#6e8da2" d="M 114.5,341.5 C 122.65,340.507 130.983,340.174 139.5,340.5C 139.806,343.385 139.473,346.052 138.5,348.5C 138.5,346.167 138.5,343.833 138.5,341.5C 130.5,341.5 122.5,341.5 114.5,341.5 Z"/></g>
<g><path style="opacity:1" fill="#6e8da2" d="M 215.5,341.5 C 223.65,340.507 231.983,340.174 240.5,340.5C 240.806,343.385 240.473,346.052 239.5,348.5C 239.5,346.167 239.5,343.833 239.5,341.5C 231.5,341.5 223.5,341.5 215.5,341.5 Z"/></g>
<g><path style="opacity:1" fill="#0f3e64" d="M 249.5,340.5 C 257.693,338.626 264.026,341.126 268.5,348C 266,348.833 263.5,349.667 261,350.5C 259.217,349.047 257.217,348.047 255,347.5C 250.593,348.488 250.426,349.988 254.5,352C 258.877,352.188 262.877,353.521 266.5,356C 270.659,361.235 270.326,366.235 265.5,371C 258.473,374.282 251.473,374.282 244.5,371C 241.976,369.117 240.642,366.617 240.5,363.5C 243.493,362.865 246.493,362.699 249.5,363C 251.65,366.36 254.483,367.193 258,365.5C 258.483,364.552 258.649,363.552 258.5,362.5C 253.552,361.906 248.886,360.406 244.5,358C 239.887,350.389 241.553,344.556 249.5,340.5 Z"/></g>
<g><path style="opacity:1" fill="#0b3c62" d="M 280.5,340.5 C 295.65,339.483 302.483,346.483 301,361.5C 297.548,371.896 290.382,375.729 279.5,373C 270.979,367.771 268.145,360.271 271,350.5C 273.022,345.98 276.189,342.647 280.5,340.5 Z"/></g>
<g><path style="opacity:1" fill="#093b61" d="M 361.5,353.5 C 362.11,352.609 362.443,351.609 362.5,350.5C 367.075,340.394 374.408,337.894 384.5,343C 388.192,345.55 389.858,349.05 389.5,353.5C 386.5,353.5 383.5,353.5 380.5,353.5C 380.695,350.221 379.195,348.221 376,347.5C 374.013,348.154 372.68,349.487 372,351.5C 371.333,355.167 371.333,358.833 372,362.5C 374.937,367.786 377.771,367.786 380.5,362.5C 383.428,361.516 386.428,361.183 389.5,361.5C 389.422,367.161 386.756,370.995 381.5,373C 366.539,375.207 359.872,368.707 361.5,353.5 Z"/></g>
<g><path style="opacity:1" fill="#0f3e64" d="M 426.5,340.5 C 434.693,338.626 441.026,341.126 445.5,348C 443,348.833 440.5,349.667 438,350.5C 436.217,349.047 434.217,348.047 432,347.5C 427.593,348.488 427.426,349.988 431.5,352C 437.572,352.285 442.405,354.785 446,359.5C 446.688,369.644 441.854,374.311 431.5,373.5C 423.893,374.048 419.226,370.714 417.5,363.5C 420.493,362.865 423.493,362.699 426.5,363C 428.65,366.36 431.483,367.193 435,365.5C 435.483,364.552 435.649,363.552 435.5,362.5C 430.552,361.906 425.886,360.406 421.5,358C 416.887,350.389 418.553,344.556 426.5,340.5 Z"/></g>
<g><path style="opacity:1" fill="#7592a7" d="M 102.5,341.5 C 96.8333,341.5 91.1667,341.5 85.5,341.5C 85.5,352.167 85.5,362.833 85.5,373.5C 84.5054,362.679 84.1721,351.679 84.5,340.5C 90.69,340.177 96.69,340.51 102.5,341.5 Z"/></g>
<g><path style="opacity:1" fill="#0a3b62" d="M 102.5,341.5 C 111.836,343.166 114.67,348.499 111,357.5C 106.446,360.959 101.279,362.292 95.5,361.5C 95.5,365.5 95.5,369.5 95.5,373.5C 92.1667,373.5 88.8333,373.5 85.5,373.5C 85.5,362.833 85.5,352.167 85.5,341.5C 91.1667,341.5 96.8333,341.5 102.5,341.5 Z"/></g>
<g><path style="opacity:1" fill="#073a61" d="M 114.5,341.5 C 122.5,341.5 130.5,341.5 138.5,341.5C 138.5,343.833 138.5,346.167 138.5,348.5C 133.833,348.5 129.167,348.5 124.5,348.5C 124.5,350.167 124.5,351.833 124.5,353.5C 128.5,353.5 132.5,353.5 136.5,353.5C 136.5,355.833 136.5,358.167 136.5,360.5C 132.5,360.5 128.5,360.5 124.5,360.5C 124.5,362.167 124.5,363.833 124.5,365.5C 129.167,365.5 133.833,365.5 138.5,365.5C 138.5,368.167 138.5,370.833 138.5,373.5C 130.5,373.5 122.5,373.5 114.5,373.5C 114.5,362.833 114.5,352.167 114.5,341.5 Z"/></g>
<g><path style="opacity:1" fill="#0b3c62" d="M 141.5,340.5 C 144.898,340.18 148.232,340.513 151.5,341.5C 154.468,346.964 157.634,352.297 161,357.5C 161.499,351.843 161.666,346.176 161.5,340.5C 164.167,340.5 166.833,340.5 169.5,340.5C 169.5,351.5 169.5,362.5 169.5,373.5C 166.428,373.817 163.428,373.484 160.5,372.5C 156.8,366.63 153.3,360.63 150,354.5C 149.5,360.825 149.334,367.158 149.5,373.5C 146.833,373.5 144.167,373.5 141.5,373.5C 141.5,362.5 141.5,351.5 141.5,340.5 Z"/></g>
<g><path style="opacity:1" fill="#6d8ca2" d="M 205.5,341.5 C 198.833,341.5 192.167,341.5 185.5,341.5C 185.5,352.167 185.5,362.833 185.5,373.5C 184.505,362.679 184.172,351.679 184.5,340.5C 191.687,340.175 198.687,340.509 205.5,341.5 Z"/></g>
<g><path style="opacity:1" fill="#093b61" d="M 205.5,341.5 C 212.603,343.027 215.103,347.361 213,354.5C 211.854,356.644 210.354,358.477 208.5,360C 210.669,364.343 212.336,368.843 213.5,373.5C 209.833,373.5 206.167,373.5 202.5,373.5C 201.444,369.832 200.278,366.165 199,362.5C 197.989,361.663 196.822,361.33 195.5,361.5C 195.5,365.5 195.5,369.5 195.5,373.5C 192.167,373.5 188.833,373.5 185.5,373.5C 185.5,362.833 185.5,352.167 185.5,341.5C 192.167,341.5 198.833,341.5 205.5,341.5 Z"/></g>
<g><path style="opacity:1" fill="#073a61" d="M 215.5,341.5 C 223.5,341.5 231.5,341.5 239.5,341.5C 239.5,343.833 239.5,346.167 239.5,348.5C 234.833,348.5 230.167,348.5 225.5,348.5C 225.5,350.167 225.5,351.833 225.5,353.5C 229.5,353.5 233.5,353.5 237.5,353.5C 237.5,355.833 237.5,358.167 237.5,360.5C 233.5,360.5 229.5,360.5 225.5,360.5C 225.5,362.167 225.5,363.833 225.5,365.5C 230.167,365.5 234.833,365.5 239.5,365.5C 239.5,368.167 239.5,370.833 239.5,373.5C 231.5,373.5 223.5,373.5 215.5,373.5C 215.5,362.833 215.5,352.167 215.5,341.5 Z"/></g>
<g><path style="opacity:1" fill="#073a61" d="M 321.5,341.5 C 323.833,341.5 326.167,341.5 328.5,341.5C 328.5,349.167 328.5,356.833 328.5,364.5C 328.226,368.948 325.892,371.781 321.5,373C 315.836,374.159 310.502,373.492 305.5,371C 304.107,369.829 303.273,368.329 303,366.5C 302.5,357.84 302.334,349.173 302.5,340.5C 305.833,340.5 309.167,340.5 312.5,340.5C 312.334,348.507 312.5,356.507 313,364.5C 316.012,367.25 318.679,366.917 321,363.5C 321.5,356.174 321.666,348.841 321.5,341.5 Z"/></g>
<g><path style="opacity:1" fill="#67889e" d="M 321.5,341.5 C 323.948,340.527 326.615,340.194 329.5,340.5C 329.826,348.684 329.492,356.684 328.5,364.5C 328.5,356.833 328.5,349.167 328.5,341.5C 326.167,341.5 323.833,341.5 321.5,341.5 Z"/></g>
<g><path style="opacity:1" fill="#9aafbf" d="M 352.5,341.5 C 345.833,341.5 339.167,341.5 332.5,341.5C 332.5,352.167 332.5,362.833 332.5,373.5C 331.505,362.679 331.172,351.679 331.5,340.5C 338.687,340.175 345.687,340.509 352.5,341.5 Z"/></g>
<g><path style="opacity:1" fill="#073a61" d="M 352.5,341.5 C 356.627,341.635 359.294,343.635 360.5,347.5C 360.5,349.5 360.5,351.5 360.5,353.5C 359.431,356.076 357.765,358.243 355.5,360C 357.492,364.318 359.492,368.651 361.5,373C 357.833,373.667 354.167,373.667 350.5,373C 348.809,369.599 347.309,366.099 346,362.5C 344.989,361.663 343.822,361.33 342.5,361.5C 342.5,365.5 342.5,369.5 342.5,373.5C 339.167,373.5 335.833,373.5 332.5,373.5C 332.5,362.833 332.5,352.167 332.5,341.5C 339.167,341.5 345.833,341.5 352.5,341.5 Z"/></g>
<g><path style="opacity:1" fill="#9fb3c2" d="M 416.5,341.5 C 408.5,341.5 400.5,341.5 392.5,341.5C 392.5,352.167 392.5,362.833 392.5,373.5C 391.505,362.679 391.172,351.679 391.5,340.5C 400.017,340.174 408.35,340.507 416.5,341.5 Z"/></g>
<g><path style="opacity:1" fill="#043960" d="M 416.5,341.5 C 416.5,343.833 416.5,346.167 416.5,348.5C 411.833,348.5 407.167,348.5 402.5,348.5C 401.549,349.919 401.216,351.585 401.5,353.5C 405.5,353.5 409.5,353.5 413.5,353.5C 413.5,355.833 413.5,358.167 413.5,360.5C 409.5,360.5 405.5,360.5 401.5,360.5C 401.5,362.167 401.5,363.833 401.5,365.5C 406.5,365.5 411.5,365.5 416.5,365.5C 416.5,368.167 416.5,370.833 416.5,373.5C 408.5,373.5 400.5,373.5 392.5,373.5C 392.5,362.833 392.5,352.167 392.5,341.5C 400.5,341.5 408.5,341.5 416.5,341.5 Z"/></g>
<g><path style="opacity:1" fill="#f5f7f9" d="M 66.5,347.5 C 68.9032,347.393 70.7365,348.393 72,350.5C 72.6667,354.833 72.6667,359.167 72,363.5C 70.6949,366.306 68.5282,367.14 65.5,366C 64.8742,365.25 64.3742,364.416 64,363.5C 63.3333,359.167 63.3333,354.833 64,350.5C 65.045,349.627 65.8783,348.627 66.5,347.5 Z"/></g>
<g><path style="opacity:1" fill="#f9fafb" d="M 95.5,348.5 C 97.5273,348.338 99.5273,348.505 101.5,349C 102.833,350.667 102.833,352.333 101.5,354C 99.5273,354.495 97.5273,354.662 95.5,354.5C 95.5,352.5 95.5,350.5 95.5,348.5 Z"/></g>
<g><path style="opacity:1" fill="#7c97ab" d="M 201.5,348.5 C 199.5,348.5 197.5,348.5 195.5,348.5C 195.5,350.167 195.5,351.833 195.5,353.5C 197.5,353.5 199.5,353.5 201.5,353.5C 199.393,354.468 197.059,354.802 194.5,354.5C 194.5,352.167 194.5,349.833 194.5,347.5C 197.059,347.198 199.393,347.532 201.5,348.5 Z"/></g>
<g><path style="opacity:1" fill="#fcfcfd" d="M 201.5,348.5 C 204.167,350.167 204.167,351.833 201.5,353.5C 199.5,353.5 197.5,353.5 195.5,353.5C 195.5,351.833 195.5,350.167 195.5,348.5C 197.5,348.5 199.5,348.5 201.5,348.5 Z"/></g>
<g><path style="opacity:1" fill="#f3f5f7" d="M 284.5,347.5 C 289.337,348.641 291.337,351.807 290.5,357C 291.282,361.61 289.615,364.776 285.5,366.5C 284.558,366.392 283.725,366.059 283,365.5C 279.23,359.02 279.73,353.02 284.5,347.5 Z"/></g>
<g><path style="opacity:1" fill="#e5eaee" d="M 342.5,347.5 C 344.527,347.338 346.527,347.505 348.5,348C 351.033,349.916 351.033,351.916 348.5,354C 346.527,354.495 344.527,354.662 342.5,354.5C 342.5,352.167 342.5,349.833 342.5,347.5 Z"/></g>
<g><path style="opacity:1" fill="#87a1b3" d="M 360.5,347.5 C 361.167,348.5 361.833,349.5 362.5,350.5C 362.443,351.609 362.11,352.609 361.5,353.5C 361.167,353.5 360.833,353.5 360.5,353.5C 360.5,351.5 360.5,349.5 360.5,347.5 Z"/></g>
<g><path style="opacity:1" fill="#9cb1c0" d="M 402.5,348.5 C 402.5,349.833 402.5,351.167 402.5,352.5C 406.371,352.185 410.038,352.518 413.5,353.5C 409.5,353.5 405.5,353.5 401.5,353.5C 401.216,351.585 401.549,349.919 402.5,348.5 Z"/></g>
<g><path style="opacity:1" fill="#093b61" d="M 224.5,387.5 C 232.144,386.428 237.977,389.095 242,395.5C 242.494,397.134 242.66,398.801 242.5,400.5C 239.5,400.5 236.5,400.5 233.5,400.5C 233.695,397.221 232.195,395.221 229,394.5C 227.013,395.154 225.68,396.487 225,398.5C 224.333,402.167 224.333,405.833 225,409.5C 227.937,414.786 230.771,414.786 233.5,409.5C 236.428,408.516 239.428,408.183 242.5,408.5C 242.422,414.161 239.756,417.995 234.5,420C 218.908,422.037 212.408,415.204 215,399.5C 216.155,393.851 219.322,389.851 224.5,387.5 Z"/></g>
<g><path style="opacity:1" fill="#0a3b62" d="M 319.5,387.5 C 336.803,387.408 342.969,395.741 338,412.5C 333.464,419.844 326.964,422.344 318.5,420C 309.357,414.579 306.524,406.746 310,396.5C 312.406,392.592 315.572,389.592 319.5,387.5 Z"/></g>
<g><path style="opacity:1" fill="#9fb3c2" d="M 153.5,388.5 C 145.5,388.5 137.5,388.5 129.5,388.5C 129.5,399.167 129.5,409.833 129.5,420.5C 128.505,409.679 128.172,398.679 128.5,387.5C 137.017,387.174 145.35,387.507 153.5,388.5 Z"/></g>
<g><path style="opacity:1" fill="#043960" d="M 153.5,388.5 C 153.5,390.833 153.5,393.167 153.5,395.5C 148.833,395.5 144.167,395.5 139.5,395.5C 138.549,396.919 138.216,398.585 138.5,400.5C 142.5,400.5 146.5,400.5 150.5,400.5C 150.5,402.833 150.5,405.167 150.5,407.5C 146.5,407.5 142.5,407.5 138.5,407.5C 138.5,409.167 138.5,410.833 138.5,412.5C 143.5,412.5 148.5,412.5 153.5,412.5C 153.5,415.167 153.5,417.833 153.5,420.5C 145.5,420.5 137.5,420.5 129.5,420.5C 129.5,409.833 129.5,399.167 129.5,388.5C 137.5,388.5 145.5,388.5 153.5,388.5 Z"/></g>
<g><path style="opacity:1" fill="#7e9aae" d="M 169.5,388.5 C 165.167,388.5 160.833,388.5 156.5,388.5C 156.5,399.167 156.5,409.833 156.5,420.5C 155.505,409.679 155.172,398.679 155.5,387.5C 160.363,387.181 165.03,387.514 169.5,388.5 Z"/></g>
<g><path style="opacity:1" fill="#0b3b62" d="M 169.5,388.5 C 177.76,388.459 182.76,392.459 184.5,400.5C 184.5,402.833 184.5,405.167 184.5,407.5C 183.934,412.8 181.267,416.633 176.5,419C 169.924,420.377 163.257,420.877 156.5,420.5C 156.5,409.833 156.5,399.167 156.5,388.5C 160.833,388.5 165.167,388.5 169.5,388.5 Z"/></g>
<g><path style="opacity:1" fill="#9aafbf" d="M 186.5,387.5 C 186.5,387.833 186.5,388.167 186.5,388.5C 186.5,396.167 186.5,403.833 186.5,411.5C 185.833,410.167 185.167,408.833 184.5,407.5C 184.5,405.167 184.5,402.833 184.5,400.5C 185.167,396.167 185.833,391.833 186.5,387.5 Z"/></g>
<g><path style="opacity:1" fill="#043960" d="M 186.5,388.5 C 189.5,388.5 192.5,388.5 195.5,388.5C 195.175,395.687 195.509,402.687 196.5,409.5C 198.584,414.354 201.251,414.687 204.5,410.5C 205.492,403.352 205.825,396.019 205.5,388.5C 207.833,388.5 210.167,388.5 212.5,388.5C 212.5,396.167 212.5,403.833 212.5,411.5C 212.21,415.961 209.877,418.795 205.5,420C 200.382,420.888 195.382,420.555 190.5,419C 187.976,417.117 186.642,414.617 186.5,411.5C 186.5,403.833 186.5,396.167 186.5,388.5 Z"/></g>
<g><path style="opacity:1" fill="#476e8a" d="M 186.5,388.5 C 186.5,388.167 186.5,387.833 186.5,387.5C 189.833,387.5 193.167,387.5 196.5,387.5C 196.5,394.833 196.5,402.167 196.5,409.5C 195.509,402.687 195.175,395.687 195.5,388.5C 192.5,388.5 189.5,388.5 186.5,388.5 Z"/></g>
<g><path style="opacity:1" fill="#8aa3b5" d="M 212.5,411.5 C 212.5,403.833 212.5,396.167 212.5,388.5C 210.167,388.5 207.833,388.5 205.5,388.5C 205.825,396.019 205.492,403.352 204.5,410.5C 204.5,402.833 204.5,395.167 204.5,387.5C 207.5,387.5 210.5,387.5 213.5,387.5C 213.826,395.684 213.492,403.684 212.5,411.5 Z"/></g>
<g><path style="opacity:1" fill="#123f65" d="M 253.5,387.5 C 257.106,387.211 260.606,387.544 264,388.5C 267.88,398.972 271.047,409.639 273.5,420.5C 270.167,420.5 266.833,420.5 263.5,420.5C 263.643,418.738 263.309,417.071 262.5,415.5C 259.232,414.513 255.898,414.18 252.5,414.5C 252.167,416.5 251.833,418.5 251.5,420.5C 248.833,420.5 246.167,420.5 243.5,420.5C 246.434,409.365 249.768,398.365 253.5,387.5 Z"/></g>
<g><path style="opacity:1" fill="#0b3b62" d="M 295.5,395.5 C 293.167,395.5 290.833,395.5 288.5,395.5C 288.5,403.833 288.5,412.167 288.5,420.5C 285.5,420.5 282.5,420.5 279.5,420.5C 279.5,412.167 279.5,403.833 279.5,395.5C 277.167,395.5 274.833,395.5 272.5,395.5C 272.5,392.833 272.5,390.167 272.5,387.5C 280.167,387.5 287.833,387.5 295.5,387.5C 295.5,390.167 295.5,392.833 295.5,395.5 Z"/></g>
<g><path style="opacity:1" fill="#7592a7" d="M 306.5,420.5 C 306.5,409.833 306.5,399.167 306.5,388.5C 303.5,388.5 300.5,388.5 297.5,388.5C 297.5,399.167 297.5,409.833 297.5,420.5C 296.505,409.679 296.172,398.679 296.5,387.5C 300.167,387.5 303.833,387.5 307.5,387.5C 307.828,398.679 307.495,409.679 306.5,420.5 Z"/></g>
<g><path style="opacity:1" fill="#02375f" d="M 306.5,420.5 C 303.5,420.5 300.5,420.5 297.5,420.5C 297.5,409.833 297.5,399.167 297.5,388.5C 300.5,388.5 303.5,388.5 306.5,388.5C 306.5,399.167 306.5,409.833 306.5,420.5 Z"/></g>
<g><path style="opacity:1" fill="#496f8b" d="M 351.5,388.5 C 348.5,388.5 345.5,388.5 342.5,388.5C 342.5,399.167 342.5,409.833 342.5,420.5C 341.505,409.679 341.172,398.679 341.5,387.5C 345.042,387.187 348.375,387.521 351.5,388.5 Z"/></g>
<g><path style="opacity:1" fill="#083a61" d="M 351.5,403.5 C 351.013,402.527 350.513,401.527 350,400.5C 349.5,407.158 349.334,413.825 349.5,420.5C 347.167,420.5 344.833,420.5 342.5,420.5C 342.5,409.833 342.5,399.167 342.5,388.5C 345.5,388.5 348.5,388.5 351.5,388.5C 354.656,393.472 357.823,398.472 361,403.5C 361.499,398.177 361.666,392.844 361.5,387.5C 364.167,387.5 366.833,387.5 369.5,387.5C 369.5,398.5 369.5,409.5 369.5,420.5C 366.813,420.664 364.146,420.497 361.5,420C 357.779,414.722 354.445,409.222 351.5,403.5 Z"/></g>
<g><path style="opacity:1" fill="#f7f9fa" d="M 166.5,395.5 C 172.352,395.188 175.019,398.021 174.5,404C 175.019,409.979 172.352,412.812 166.5,412.5C 166.5,406.833 166.5,401.167 166.5,395.5 Z"/></g>
<g><path style="opacity:1" fill="#f0f3f6" d="M 322.5,394.5 C 327.425,395.303 329.758,398.303 329.5,403.5C 329.318,406.226 328.818,408.893 328,411.5C 325.034,414.265 322.367,413.932 320,410.5C 318.751,404.718 319.585,399.385 322.5,394.5 Z"/></g>
<g><path style="opacity:1" fill="#a1b5c4" d="M 295.5,395.5 C 293.735,396.461 291.735,396.795 289.5,396.5C 289.826,404.684 289.492,412.684 288.5,420.5C 288.5,412.167 288.5,403.833 288.5,395.5C 290.833,395.5 293.167,395.5 295.5,395.5 Z"/></g>
<g><path style="opacity:1" fill="#9cb1c0" d="M 139.5,395.5 C 139.5,396.833 139.5,398.167 139.5,399.5C 143.371,399.185 147.038,399.518 150.5,400.5C 146.5,400.5 142.5,400.5 138.5,400.5C 138.216,398.585 138.549,396.919 139.5,395.5 Z"/></g>
<g><path style="opacity:1" fill="#dde3e9" d="M 256.5,398.5 C 258.977,400.416 259.977,403.083 259.5,406.5C 258.167,406.5 256.833,406.5 255.5,406.5C 255.833,403.833 256.167,401.167 256.5,398.5 Z"/></g>
<g><path style="opacity:1" fill="#9fb3c2" d="M 351.5,403.5 C 350.833,409.167 350.167,414.833 349.5,420.5C 349.334,413.825 349.5,407.158 350,400.5C 350.513,401.527 351.013,402.527 351.5,403.5 Z"/></g>
</svg>
